<svg xmlns="http://www.w3.org/2000/svg" xmlns:xlink="http://www.w3.org/1999/xlink" width="1080" height="1080" style="width:100%;height:100%;transform:translate3d(0,0,0);content-visibility:visible"><defs><mask id="cn" mask-type="alpha"><use xlink:href="#a"/></mask><mask id="cl" mask-type="alpha"><g filter="url(#b)"><use xlink:href="#c"/></g></mask><mask id="ck" mask-type="alpha"><use xlink:href="#d"/></mask><mask id="cj" mask-type="alpha"><use xlink:href="#e"/></mask><mask id="ch" mask-type="alpha"><g filter="url(#f)"><use xlink:href="#g"/></g></mask><mask id="cf" mask-type="alpha"><use xlink:href="#h"/></mask><mask id="cd" mask-type="alpha"><g filter="url(#i)"><use xlink:href="#j"/></g></mask><mask id="cc" mask-type="alpha"><use xlink:href="#k"/></mask><mask id="cb" mask-type="alpha"><use xlink:href="#l"/></mask><mask id="bZ" mask-type="alpha"><g filter="url(#m)"><use xlink:href="#n"/></g></mask><mask id="bX" mask-type="alpha"><use xlink:href="#o"/></mask><mask id="bV" mask-type="alpha"><g filter="url(#p)"><use xlink:href="#q"/></g></mask><mask id="bU" mask-type="alpha"><use xlink:href="#r"/></mask><mask id="bT" mask-type="alpha"><use xlink:href="#s"/></mask><mask id="bR" mask-type="alpha"><g filter="url(#t)"><use xlink:href="#u"/></g></mask><mask id="bH" mask-type="alpha"><use xlink:href="#v"/></mask><mask id="bG" mask-type="alpha"><use xlink:href="#w"/></mask><mask id="bE" mask-type="alpha"><use xlink:href="#x"/></mask><mask id="bD" mask-type="alpha"><use xlink:href="#y"/></mask><mask id="bB" mask-type="alpha"><use xlink:href="#z"/></mask><mask id="bA" mask-type="alpha"><use xlink:href="#A"/></mask><mask id="by" mask-type="alpha"><use xlink:href="#B"/></mask><mask id="bx" mask-type="alpha"><use xlink:href="#C"/></mask><mask id="bu" mask-type="alpha"><use xlink:href="#D"/></mask><mask id="bv" mask-type="alpha"><use xlink:href="#E"/></mask><mask id="br" mask-type="alpha"><use xlink:href="#F"/></mask><mask id="bs" mask-type="alpha"><use xlink:href="#G"/></mask><mask id="bo" mask-type="alpha"><use xlink:href="#H"/></mask><mask id="bp" mask-type="alpha"><use xlink:href="#I"/></mask><mask id="bl" mask-type="alpha"><use xlink:href="#J"/></mask><mask id="bm" mask-type="alpha"><use xlink:href="#K"/></mask><mask id="bh" mask-type="alpha"><use xlink:href="#L"/></mask><mask id="bd" mask-type="alpha"><use xlink:href="#M"/></mask><mask id="aZ" mask-type="alpha"><use xlink:href="#N"/></mask><mask id="aX" mask-type="alpha"><use xlink:href="#O"/></mask><mask id="aW" mask-type="alpha"><use xlink:href="#P"/></mask><mask id="aV" mask-type="alpha"><use xlink:href="#Q"/></mask><mask id="aT" mask-type="alpha"><use xlink:href="#R"/></mask><mask id="aS" mask-type="alpha"><use xlink:href="#S"/></mask><mask id="aR" mask-type="alpha"><use xlink:href="#T"/></mask><mask id="aP" mask-type="alpha"><use xlink:href="#U"/></mask><mask id="aO" mask-type="alpha"><use xlink:href="#V"/></mask><mask id="aN" mask-type="alpha"><use xlink:href="#W"/></mask><mask id="aL" mask-type="alpha"><use xlink:href="#X"/></mask><mask id="aK" mask-type="alpha"><use xlink:href="#Y"/></mask><mask id="aJ" mask-type="alpha"><use xlink:href="#Z"/></mask><mask id="aG" mask-type="alpha"><use xlink:href="#aa"/></mask><mask id="aF" mask-type="alpha"><use xlink:href="#ab"/></mask><mask id="aE" mask-type="alpha"><use xlink:href="#ac"/></mask><mask id="aC" mask-type="alpha"><use xlink:href="#ad"/></mask><mask id="az" mask-type="alpha"><use xlink:href="#ae"/></mask><mask id="ay" mask-type="alpha"><use xlink:href="#af"/></mask><mask id="ax" mask-type="alpha"><use xlink:href="#ag"/></mask><mask id="av" mask-type="alpha"><use xlink:href="#ah"/></mask><mask id="as" mask-type="alpha"><use xlink:href="#ai"/></mask><mask id="ar" mask-type="alpha"><use xlink:href="#aj"/></mask><mask id="aq" mask-type="alpha"><use xlink:href="#ak"/></mask><mask id="ao" mask-type="alpha"><use xlink:href="#al"/></mask><clipPath id="am"><path d="M0 0h1080v1080H0z"/></clipPath><clipPath id="cg"><path d="M0 0h1920v1079H0z"/></clipPath><clipPath id="cm"><path d="M0 0h1920v1079H0z"/></clipPath><clipPath id="ci"><path d="M0 0h1920v1079H0z"/></clipPath><clipPath id="bY"><path d="M0 0h1920v1079H0z"/></clipPath><clipPath id="ce"><path d="M0 0h1920v1079H0z"/></clipPath><clipPath id="ca"><path d="M0 0h1920v1079H0z"/></clipPath><clipPath id="bQ"><path d="M0 0h1920v1079H0z"/></clipPath><clipPath id="bW"><path d="M0 0h1920v1079H0z"/></clipPath><clipPath id="bS"><path d="M0 0h1920v1079H0z"/></clipPath><clipPath id="bP"><path d="M0 0h1920v1079H0z"/></clipPath><clipPath id="bO"><path d="M0 0h1920v1079H0z"/></clipPath><clipPath id="bN"><path d="M0 0h1920v1079H0z"/></clipPath><clipPath id="bM"><path d="M0 0h1920v1079H0z"/></clipPath><clipPath id="bL"><path d="M0 0h1920v1079H0z"/></clipPath><clipPath id="bK"><path d="M0 0h1920v1079H0z"/></clipPath><clipPath id="bJ"><path d="M0 0h1920v1079H0z"/></clipPath><clipPath id="bI"><path d="M0 0h1920v1079H0z"/></clipPath><clipPath id="bF"><path d="M0 0h1920v1079H0z"/></clipPath><clipPath id="bC"><path d="M0 0h1920v1079H0z"/></clipPath><clipPath id="bz"><path d="M0 0h1920v1079H0z"/></clipPath><clipPath id="bw"><path d="M0 0h1920v1079H0z"/></clipPath><clipPath id="bt"><path d="M0 0h1920v1079H0z"/></clipPath><clipPath id="bq"><path d="M0 0h1920v1079H0z"/></clipPath><clipPath id="bn"><path d="M0 0h1920v1079H0z"/></clipPath><clipPath id="bk"><path d="M0 0h1920v1079H0z"/></clipPath><clipPath id="bg"><path d="M0 0h1920v1079H0z"/></clipPath><clipPath id="bi"><path d="M0 0h1920v1079H0z"/></clipPath><clipPath id="bc"><path d="M0 0h1920v1079H0z"/></clipPath><clipPath id="be"><path d="M0 0h1920v1079H0z"/></clipPath><clipPath id="aY"><path d="M0 0h1920v1079H0z"/></clipPath><clipPath id="ba"><path d="M0 0h1920v1079H0z"/></clipPath><clipPath id="aU"><path d="M0 0h1920v1079H0z"/></clipPath><clipPath id="aQ"><path d="M0 0h1920v1079H0z"/></clipPath><clipPath id="aM"><path d="M0 0h1920v1079H0z"/></clipPath><clipPath id="aI"><path d="M0 0h1920v1079H0z"/></clipPath><clipPath id="aB"><path d="M0 0h1920v1079H0z"/></clipPath><clipPath id="aH"><path d="M0 0h1920v1079H0z"/></clipPath><clipPath id="aD"><path d="M0 0h1920v1079H0z"/></clipPath><clipPath id="au"><path d="M0 0h1920v1079H0z"/></clipPath><clipPath id="aA"><path d="M0 0h1920v1079H0z"/></clipPath><clipPath id="aw"><path d="M0 0h1920v1079H0z"/></clipPath><clipPath id="an"><path d="M0 0h1920v1079H0z"/></clipPath><clipPath id="at"><path d="M0 0h1920v1079H0z"/></clipPath><clipPath id="ap"><path d="M0 0h1920v1079H0z"/></clipPath><path fill="#DB8D74" d="M521.5 303c-16.5 11-42 12.5-66 13.5s-53.834 22.53-51 52c2.5 26 27.5 43 54.5 43.5 30.012.556 61-2.5 100.5-24s36.5-55.5 23.5-77-45-19-61.5-8z" transform="rotate(-6 6207.043 -8631.536)" style="display:block" id="e"/><path fill="#DB8D74" d="M521.5 303c-16.5 11-42 12.5-66 13.5s-53.834 22.53-51 52c2.5 26 27.5 43 54.5 43.5 30.012.556 61-2.5 100.5-24s36.5-55.5 23.5-77-45-19-61.5-8z" transform="translate(975 551.5)" style="display:block" id="l"/><path fill="#DB8D74" d="M482.763 275.603c-62.54 10.163-70.236 76.625-62.591 127.106 8.645 49.929 23.159 76.255 59.745 71.089 30.143-4.48 46.95-27.825 42.718-65.137-4.113-34.11 2.888-55.598 6.279-76.482 5.387-32.209-15.527-60.714-46.15-56.576z" transform="rotate(35.667 107.154 2195.246)" style="display:block" id="o"/><path fill="#DB8D74" d="M521.5 303c-16.5 11-42 12.5-66 13.5s-53.834 22.53-51 52c2.5 26 27.5 43 54.5 43.5 30.012.556 61-2.5 100.5-24s36.5-55.5 23.5-77-45-19-61.5-8z" transform="translate(975 551.5)" style="display:block" id="s"/><path fill="#FFCBA3" d="M208.585-408.855c-7.835-3.645-36.835-2.645-50.532 21.238-12.377 21.58-5.057 49.093 16.487 61.532 0 0 2.21 1.585 4.192 2.604C165-376.5 201.25-403.25 213.777-407.001c-1.277-.999-5.192-1.854-5.192-1.854z" transform="rotate(.086 -392644.468 689667.386)" style="display:block" id="v"/><path fill="#B23232" d="m182.384-391.552 1.367 3.251c1.287 3.064-.21 6.55-3.345 7.788-3.135 1.237-6.72-.244-8.008-3.308l-1.366-3.251c-1.287-3.065.21-6.55 3.345-7.788 3.135-1.237 6.72.244 8.007 3.308z" transform="rotate(.086 -392644.468 689667.386)" style="display:block" id="w"/><path fill="#FFCBA3" d="M208.585-408.855c-7.835-3.645-36.835-2.645-50.532 21.238-12.377 21.58-5.057 49.093 16.487 61.532 0 0 2.21 1.585 4.192 2.604C165-376.5 201.25-403.25 213.777-407.001c-1.277-.999-5.192-1.854-5.192-1.854z" transform="rotate(1.568 -20927.52 37851.114)" style="display:block" id="x"/><path fill="#B23232" d="m184.23-391.34 1.119 3.378c1.054 3.184-.808 6.524-4.159 7.46-3.35.936-6.92-.888-7.975-4.072l-1.118-3.378c-1.054-3.185.808-6.524 4.158-7.46 3.35-.936 6.921.887 7.975 4.071z" transform="rotate(1.568 -20927.52 37851.114)" style="display:block" id="y"/><path fill="#FFCBA3" d="M208.585-408.855c-7.835-3.645-36.835-2.645-50.532 21.238-12.377 21.58-5.057 49.093 16.487 61.532 0 0 2.21 1.585 4.192 2.604C165-376.5 201.25-403.25 213.777-407.001c-1.277-.999-5.192-1.854-5.192-1.854z" transform="rotate(1.568 -20927.52 37851.114)" style="display:block" id="z"/><path fill="#B23232" d="m184.23-391.34 1.119 3.378c1.054 3.184-.808 6.524-4.159 7.46-3.35.936-6.92-.888-7.975-4.072l-1.118-3.378c-1.054-3.185.808-6.524 4.158-7.46 3.35-.936 6.921.887 7.975 4.071z" transform="rotate(1.568 -20927.52 37851.114)" style="display:block" id="A"/><path fill="#FFCBA3" d="M208.585-408.855c-7.835-3.645-36.835-2.645-50.532 21.238-12.377 21.58-5.057 49.093 16.487 61.532 0 0 2.21 1.585 4.192 2.604C165-376.5 201.25-403.25 213.777-407.001c-1.277-.999-5.192-1.854-5.192-1.854z" transform="rotate(1.568 -20927.273 37851.03)" style="display:block" id="B"/><path fill="#B23232" d="m184.225-391.341 1.12 3.378c1.054 3.183-.807 6.524-4.156 7.46-3.35.938-6.921-.885-7.976-4.069l-1.12-3.378c-1.053-3.184.808-6.524 4.157-7.46 3.35-.938 6.921.884 7.975 4.069z" transform="rotate(1.568 -20927.273 37851.03)" style="display:block" id="C"/><path fill="#58CC02" d="M318.202-45.464c15.252 94.999-31.572 144.035-95.655 159.537-84.448 20.428-134.794-43.146-151.05-96.71C16-165.5 158.631-177.933 166.59-174.39a21.642 21.642 0 0 0 13.898 1.277c13.72-3.334 29.364-13.462 52.062-24.71 28.634-14.19 72.547 1.407 71.323 40.679 0 0 5.505 56.717 14.329 111.68zm-15 4c15.252 94.999-16.572 140.035-80.655 155.537-84.448 20.428-144.155-35.09-168.05-85.71C36.399-9.976 31.209-79.308 31.209-79.308c-2.443-42.408 8.57-88.445 47.15-106.222 17.568-8.095 35.66-11.367 49.816-6.28 21.939 7.884 30.456 13.877 38.415 17.42 4.363 1.942 127.788 77.963 136.612 132.926z" transform="rotate(-2.646 13776.4 -22136.3)" style="display:block" id="E"/><path fill="#58CC02" d="M318.202-45.464c15.252 94.999-31.572 144.035-95.655 159.537-84.448 20.428-134.794-43.146-151.05-96.71C16-165.5 158.631-177.933 166.59-174.39a21.642 21.642 0 0 0 13.898 1.277c13.72-3.334 29.364-13.462 52.062-24.71 28.634-14.19 72.547 1.407 71.323 40.679 0 0 5.505 56.717 14.329 111.68zm-15 4c15.252 94.999-16.572 140.035-80.655 155.537-84.448 20.428-144.155-35.09-168.05-85.71C36.399-9.976 31.209-79.308 31.209-79.308c-2.443-42.408 8.57-88.445 47.15-106.222 17.568-8.095 35.66-11.367 49.816-6.28 21.939 7.884 30.456 13.877 38.415 17.42 4.363 1.942 127.788 77.963 136.612 132.926z" transform="rotate(-2.989 12395.394 -19598.074)" style="display:block" id="G"/><path fill="#58CC02" d="M318.202-45.464c15.252 94.999-31.572 144.035-95.655 159.537-84.448 20.428-134.794-43.146-151.05-96.71C16-165.5 158.631-177.933 166.59-174.39a21.642 21.642 0 0 0 13.898 1.277c13.72-3.334 29.364-13.462 52.062-24.71 28.634-14.19 72.547 1.407 71.323 40.679 0 0 5.505 56.717 14.329 111.68zm-15 4c15.252 94.999-16.572 140.035-80.655 155.537-84.448 20.428-144.155-35.09-168.05-85.71C36.399-9.976 31.209-79.308 31.209-79.308c-2.443-42.408 8.57-88.445 47.15-106.222 17.568-8.095 35.66-11.367 49.816-6.28 21.939 7.884 30.456 13.877 38.415 17.42 4.363 1.942 127.788 77.963 136.612 132.926z" transform="rotate(-2.989 12395.394 -19598.074)" style="display:block" id="I"/><path fill="#58CC02" d="M318.202-45.464c15.252 94.999-31.572 144.035-95.655 159.537-84.448 20.428-134.794-43.146-151.05-96.71C16-165.5 158.631-177.933 166.59-174.39a21.642 21.642 0 0 0 13.898 1.277c13.72-3.334 29.364-13.462 52.062-24.71 28.634-14.19 72.547 1.407 71.323 40.679 0 0 5.505 56.717 14.329 111.68zm-15 4c15.252 94.999-16.572 140.035-80.655 155.537-84.448 20.428-144.155-35.09-168.05-85.71C36.399-9.976 31.209-79.308 31.209-79.308c-2.443-42.408 8.57-88.445 47.15-106.222 17.568-8.095 35.66-11.367 49.816-6.28 21.939 7.884 30.456 13.877 38.415 17.42 4.363 1.942 127.788 77.963 136.612 132.926z" transform="rotate(-2.985 12394.635 -19619.16)" style="display:block" id="K"/><path fill="#FFC7B8" d="M552.811-154.957c-14.873-8.982-34.962-11.237-52.179-1.891l-28.256 15.339a51.11 51.11 0 0 0-25.616 34.316l-7.98 37.63C434.57-49.714 440-30 458.986-17.428 477.972-4.856 510.5 12 528.501 43.852c6.897 12.204 42.974 11.603 54.934 7.15l38.691-9.376A38.335 38.335 0 0 0 651.93 8.839l6.319-51.72c-.568-6.318-6.973-19.296-11.519-26.102C621-107.5 590-132.5 552.811-154.957z" transform="rotate(-7.942 5190.567 -6819.459)" style="display:block" id="L"/><path fill="#FFC7B8" d="M552.811-154.957c-14.873-8.982-34.962-11.237-52.179-1.891l-28.256 15.339a51.11 51.11 0 0 0-25.616 34.316l-7.98 37.63C434.57-49.714 440-30 458.986-17.428 477.972-4.856 510.5 12 528.501 43.852c6.897 12.204 42.974 11.603 54.934 7.15l38.691-9.376A38.335 38.335 0 0 0 651.93 8.839l6.319-51.72c-.568-6.318-6.973-19.296-11.519-26.102C621-107.5 590-132.5 552.811-154.957z" transform="rotate(-6.966 5759.877 -7826.362)" style="display:block" id="M"/><path fill="#FFC7B8" d="M552.811-154.957c-14.873-8.982-34.962-11.237-52.179-1.891l-28.256 15.339a51.11 51.11 0 0 0-25.616 34.316l-7.98 37.63C434.57-49.714 440-30 458.986-17.428 477.972-4.856 510.5 12 528.501 43.852c6.897 12.204 42.974 11.603 54.934 7.15l38.691-9.376A38.335 38.335 0 0 0 651.93 8.839l6.319-51.72c-.568-6.318-6.973-19.296-11.519-26.102C621-107.5 590-132.5 552.811-154.957z" transform="rotate(-6.966 5759.878 -7826.362)" style="display:block" id="N"/><path fill="#CC348D" d="M745.232-224.137c-.304-28.44 22.505-51.741 50.945-52.045 28.44-.304 51.741 22.506 52.045 50.946.304 28.44-22.505 51.74-50.945 52.044-28.44.304-51.741-22.505-52.045-50.945z" transform="rotate(-4.703 8477.683 -12417.757)" style="display:block" id="O"/><path fill="#0084C2" d="M732.862-124.382c4.759-25.473 29.266-42.264 54.739-37.505s42.265 29.265 37.506 54.738-29.266 42.265-54.739 37.506-42.265-29.266-37.506-54.739z" transform="rotate(4.703 -5842.223 12688.798)" style="display:block" id="P"/><path fill="#AFD5E0" d="M750.527-172.52c-2.856 6.832 153.036 310.917-59.97 264.614s1.1-278.504 4.916-287.632c3.816-9.128 19.234-11.375 34.437-5.019 15.203 6.356 24.433 18.909 20.617 28.037z" transform="rotate(-9.407 4854.117 -6157.079)" style="display:block" id="Q"/><path fill="#CC348D" d="M745.232-224.137c-.304-28.44 22.505-51.741 50.945-52.045 28.44-.304 51.741 22.506 52.045 50.946.304 28.44-22.505 51.74-50.945 52.044-28.44.304-51.741-22.505-52.045-50.945z" transform="rotate(-5.989 6934.078 -9712.103)" style="display:block" id="R"/><path fill="#0084C2" d="M732.862-124.382c4.759-25.473 29.266-42.264 54.739-37.505s42.265 29.265 37.506 54.738-29.266 42.265-54.739 37.506-42.265-29.266-37.506-54.739z" transform="rotate(5.989 -4300.438 9982.162)" style="display:block" id="S"/><path fill="#AFD5E0" d="M750.527-172.52c-2.856 6.832 153.036 310.917-59.97 264.614s1.1-278.504 4.916-287.632c3.816-9.128 19.234-11.375 34.437-5.019 15.203 6.356 24.433 18.909 20.617 28.037z" transform="rotate(-11.978 4080.432 -4797.177)" style="display:block" id="T"/><path fill="#CC348D" d="M745.232-224.137c-.304-28.44 22.505-51.741 50.945-52.045 28.44-.304 51.741 22.506 52.045 50.946.304 28.44-22.505 51.74-50.945 52.044-28.44.304-51.741-22.505-52.045-50.945z" transform="rotate(-5.989 6934.078 -9712.103)" style="display:block" id="U"/><path fill="#0084C2" d="M732.862-124.382c4.759-25.473 29.266-42.264 54.739-37.505s42.265 29.265 37.506 54.738-29.266 42.265-54.739 37.506-42.265-29.266-37.506-54.739z" transform="rotate(5.989 -4300.438 9982.162)" style="display:block" id="V"/><path fill="#AFD5E0" d="M750.527-172.52c-2.856 6.832 153.036 310.917-59.97 264.614s1.1-278.504 4.916-287.632c3.816-9.128 19.234-11.375 34.437-5.019 15.203 6.356 24.433 18.909 20.617 28.037z" transform="rotate(-11.978 4080.432 -4797.177)" style="display:block" id="W"/><path fill="#CC348D" d="M745.232-224.137c-.304-28.44 22.505-51.741 50.945-52.045 28.44-.304 51.741 22.506 52.045 50.946.304 28.44-22.505 51.74-50.945 52.044-28.44.304-51.741-22.505-52.045-50.945z" transform="rotate(-5.989 6934.078 -9712.103)" style="display:block" id="X"/><path fill="#0084C2" d="M732.862-124.382c4.759-25.473 29.266-42.264 54.739-37.505s42.265 29.265 37.506 54.738-29.266 42.265-54.739 37.506-42.265-29.266-37.506-54.739z" transform="rotate(5.989 -4300.438 9982.162)" style="display:block" id="Y"/><path fill="#AFD5E0" d="M750.527-172.52c-2.856 6.832 153.036 310.917-59.97 264.614s1.1-278.504 4.916-287.632c3.816-9.128 19.234-11.375 34.437-5.019 15.203 6.356 24.433 18.909 20.617 28.037z" transform="rotate(-11.976 4080.956 -4798.09)" style="display:block" id="Z"/><path fill="#FFF" d="M638.033-169.849c-41.207 112.587-110.385 302.331-170.99 469.348-11.827 32.594-21.429 51.144-71.04 55.59-84.82 7.601-163.41 13.29-252.041 16.588-15.917.592-33.228-11.412-36.908-42.619-14.53-123.235-31.678-302.891-47.058-481.524-2.828-32.845 23.041-69.646 70.892-70.091 112.027-1.042 349.193-14.511 455.264-10.36 34.205 1.339 62.292 34.624 51.881 63.068z" transform="rotate(-145 914.887 215.665) scale(.5)" style="display:block" id="aa"/><path fill="#FFF" d="M615.125 597.383S518.546 449.096 506.719 481.69c-11.827 32.594-61.105-131.047-110.716-126.601-84.82 7.601-163.41 13.29-252.041 16.588-15.917.592-33.228-11.412-36.908-42.619-14.53-123.235-31.678-302.891-47.058-481.524-2.828-32.845 23.041-69.646 70.892-70.091 112.027-1.042 349.193-14.511 455.264-10.36 34.205 1.339 62.292 34.624 51.881 63.068C596.826-57.262 923.151 9.427 923.151 9.427s83.359 177.85 82.666 179.759c-.334.919-390.692 408.197-390.692 408.197z" transform="rotate(-145 914.887 215.665) scale(.5)" style="display:block" id="ad"/><path fill="#FFF" d="M412.599 78.212c-6.132 3.04-7.257 9.111-7.45 10.036l-2.078 9.955c-.804 3.852 1.678 7.626 5.543 8.43l7.348 1.528c7.924 1.648 15.683-3.417 17.331-11.313.495-2.371 3.308-16.424 3.308-16.424s-16.193-6.083-24.002-2.212zm-14.702-3.734c3.902 5.915 3.593 9.268 3.279 11.761-.411 3.262-1.961 10.655-1.961 10.655-.863 4.124-4.939 6.767-9.102 5.904l-7.271-1.508c-8.179-1.696-13.434-9.638-11.738-17.74.661-3.158 3.897-16.189 3.897-16.189s19.186 1.492 22.896 7.117z" transform="rotate(-4.882 7596.96 -11077.995)" style="display:block" id="ab"/><path fill="#FFF" d="M412.599 78.212c-6.132 3.04-7.257 9.111-7.45 10.036l-2.078 9.955c-.804 3.852 1.678 7.626 5.543 8.43l7.348 1.528c7.924 1.648 15.683-3.417 17.331-11.313.495-2.371 3.308-16.424 3.308-16.424s-16.193-6.083-24.002-2.212zm-14.702-3.734c3.902 5.915 3.593 9.268 3.279 11.761-.411 3.262-1.961 10.655-1.961 10.655-.863 4.124-4.939 6.767-9.102 5.904l-7.271-1.508c-8.179-1.696-13.434-9.638-11.738-17.74.661-3.158 3.897-16.189 3.897-16.189s19.186 1.492 22.896 7.117z" transform="rotate(-4.882 7596.96 -11077.995)" style="display:block" id="ac"/><path fill="#FFF" d="M638.033-169.849c-41.207 112.587-110.385 302.331-170.99 469.348-11.827 32.594-21.429 51.144-71.04 55.59-84.82 7.601-163.41 13.29-252.041 16.588-15.917.592-33.228-11.412-36.908-42.619-14.53-123.235-31.678-302.891-47.058-481.524-2.828-32.845 23.041-69.646 70.892-70.091 112.027-1.042 349.193-14.511 455.264-10.36 34.205 1.339 62.292 34.624 51.881 63.068z" transform="rotate(-145 914.887 215.665) scale(.5)" style="display:block" id="ae"/><path fill="#FFF" d="M615.125 597.383S518.546 449.096 506.719 481.69c-11.827 32.594-61.105-131.047-110.716-126.601-84.82 7.601-163.41 13.29-252.041 16.588-15.917.592-33.228-11.412-36.908-42.619-14.53-123.235-31.678-302.891-47.058-481.524-2.828-32.845 23.041-69.646 70.892-70.091 112.027-1.042 349.193-14.511 455.264-10.36 34.205 1.339 62.292 34.624 51.881 63.068C596.826-57.262 923.151 9.427 923.151 9.427s83.359 177.85 82.666 179.759c-.334.919-390.692 408.197-390.692 408.197z" transform="rotate(-145 914.887 215.665) scale(.5)" style="display:block" id="ah"/><path fill="#FFF" d="M412.599 78.212c-6.132 3.04-7.257 9.111-7.45 10.036l-2.078 9.955c-.804 3.852 1.678 7.626 5.543 8.43l7.348 1.528c7.924 1.648 15.683-3.417 17.331-11.313.495-2.371 3.308-16.424 3.308-16.424s-16.193-6.083-24.002-2.212zm-14.702-3.734c3.902 5.915 3.593 9.268 3.279 11.761-.411 3.262-1.961 10.655-1.961 10.655-.863 4.124-4.939 6.767-9.102 5.904l-7.271-1.508c-8.179-1.696-13.434-9.638-11.738-17.74.661-3.158 3.897-16.189 3.897-16.189s19.186 1.492 22.896 7.117z" transform="rotate(-5 7434.013 -10806.563)" style="display:block" id="af"/><path fill="#FFF" d="M412.599 78.212c-6.132 3.04-7.257 9.111-7.45 10.036l-2.078 9.955c-.804 3.852 1.678 7.626 5.543 8.43l7.348 1.528c7.924 1.648 15.683-3.417 17.331-11.313.495-2.371 3.308-16.424 3.308-16.424s-16.193-6.083-24.002-2.212zm-14.702-3.734c3.902 5.915 3.593 9.268 3.279 11.761-.411 3.262-1.961 10.655-1.961 10.655-.863 4.124-4.939 6.767-9.102 5.904l-7.271-1.508c-8.179-1.696-13.434-9.638-11.738-17.74.661-3.158 3.897-16.189 3.897-16.189s19.186 1.492 22.896 7.117z" transform="rotate(-5 7434.013 -10806.563)" style="display:block" id="ag"/><path fill="#FFF" d="M638.033-169.849c-41.207 112.587-110.385 302.331-170.99 469.348-11.827 32.594-21.429 51.144-71.04 55.59-84.82 7.601-163.41 13.29-252.041 16.588-15.917.592-33.228-11.412-36.908-42.619-14.53-123.235-31.678-302.891-47.058-481.524-2.828-32.845 23.041-69.646 70.892-70.091 112.027-1.042 349.193-14.511 455.264-10.36 34.205 1.339 62.292 34.624 51.881 63.068z" transform="rotate(-145 914.887 215.665) scale(.5)" style="display:block" id="ai"/><path fill="#FFF" d="M615.125 597.383S518.546 449.096 506.719 481.69c-11.827 32.594-61.105-131.047-110.716-126.601-84.82 7.601-163.41 13.29-252.041 16.588-15.917.592-33.228-11.412-36.908-42.619-14.53-123.235-31.678-302.891-47.058-481.524-2.828-32.845 23.041-69.646 70.892-70.091 112.027-1.042 349.193-14.511 455.264-10.36 34.205 1.339 62.292 34.624 51.881 63.068C596.826-57.262 923.151 9.427 923.151 9.427s83.359 177.85 82.666 179.759c-.334.919-390.692 408.197-390.692 408.197z" transform="rotate(-145 914.887 215.665) scale(.5)" style="display:block" id="al"/><path fill="#FFF" d="M412.599 78.212c-6.132 3.04-7.257 9.111-7.45 10.036l-2.078 9.955c-.804 3.852 1.678 7.626 5.543 8.43l7.348 1.528c7.924 1.648 15.683-3.417 17.331-11.313.495-2.371 3.308-16.424 3.308-16.424s-16.193-6.083-24.002-2.212zm-14.702-3.734c3.902 5.915 3.593 9.268 3.279 11.761-.411 3.262-1.961 10.655-1.961 10.655-.863 4.124-4.939 6.767-9.102 5.904l-7.271-1.508c-8.179-1.696-13.434-9.638-11.738-17.74.661-3.158 3.897-16.189 3.897-16.189s19.186 1.492 22.896 7.117z" transform="rotate(-5 7434.471 -10806.925)" style="display:block" id="aj"/><path fill="#FFF" d="M412.599 78.212c-6.132 3.04-7.257 9.111-7.45 10.036l-2.078 9.955c-.804 3.852 1.678 7.626 5.543 8.43l7.348 1.528c7.924 1.648 15.683-3.417 17.331-11.313.495-2.371 3.308-16.424 3.308-16.424s-16.193-6.083-24.002-2.212zm-14.702-3.734c3.902 5.915 3.593 9.268 3.279 11.761-.411 3.262-1.961 10.655-1.961 10.655-.863 4.124-4.939 6.767-9.102 5.904l-7.271-1.508c-8.179-1.696-13.434-9.638-11.738-17.74.661-3.158 3.897-16.189 3.897-16.189s19.186 1.492 22.896 7.117z" transform="rotate(-5 7434.471 -10806.925)" style="display:block" id="ak"/><filter id="b" filterUnits="objectBoundingBox" x="0%" y="0%" width="100%" height="100%"><feComponentTransfer in="SourceGraphic"><feFuncA type="table" tableValues="1.0 0.0"/></feComponentTransfer></filter><filter id="f" filterUnits="objectBoundingBox" x="0%" y="0%" width="100%" height="100%"><feComponentTransfer in="SourceGraphic"><feFuncA type="table" tableValues="1.0 0.0"/></feComponentTransfer></filter><filter id="i" filterUnits="objectBoundingBox" x="0%" y="0%" width="100%" height="100%"><feComponentTransfer in="SourceGraphic"><feFuncA type="table" tableValues="1.0 0.0"/></feComponentTransfer></filter><filter id="m" filterUnits="objectBoundingBox" x="0%" y="0%" width="100%" height="100%"><feComponentTransfer in="SourceGraphic"><feFuncA type="table" tableValues="1.0 0.0"/></feComponentTransfer></filter><filter id="p" filterUnits="objectBoundingBox" x="0%" y="0%" width="100%" height="100%"><feComponentTransfer in="SourceGraphic"><feFuncA type="table" tableValues="1.0 0.0"/></feComponentTransfer></filter><filter id="t" filterUnits="objectBoundingBox" x="0%" y="0%" width="100%" height="100%"><feComponentTransfer in="SourceGraphic"><feFuncA type="table" tableValues="1.0 0.0"/></feComponentTransfer></filter><g style="display:block" id="g"><path fill="#FFF" d="M638.033-169.849c-41.207 112.587 498.002-704.754 437.397-537.737-11.827 32.594-744.654 15.526-794.265 19.972-84.82 7.601-1090.514 743.028-1179.146 746.325-15.917.593 94.439 209.272 90.759 178.065-14.53-123.236 483.127-306.895 467.747-485.528-1.182-13.726 402.119 68.144 410.47 55.978 11.633-16.946 32.039-29.524 59.893-29.783 112.027-1.042 349.193-14.511 455.264-10.36 34.205 1.339 62.291 34.624 51.881 63.068z" transform="rotate(-145 914.887 215.665) scale(.5)"/><path fill-opacity="0" stroke="#9DEEC7" stroke-width="6.5" d="M1230.584 803.67C1279.75 769.375 824.5 949.5 897.22 898.474c14.192-9.958 309.445 207.2 331.04 219.606 36.92 21.212 659.74 8.42 696.987 32.488 6.69 4.322 21.337-112.796 13.894-98.96-29.391 54.642-285.89-12.858-330.821 64.717-3.453 5.96-145.156-143.233-152.065-140.645-9.625 3.604-21.59 2.904-33.072-4.979-46.183-31.7-147.183-94.2-189.437-126.32-13.625-10.359-15.583-32.046-3.162-40.71z"/></g><g style="display:block" id="d"><path fill="#DB8D74" d="M521.5 303c-16.5 11-42 12.5-66 13.5s-53.834 22.53-51 52c2.5 26 27.5 43 54.5 43.5 30.012.556 61-2.5 100.5-24s36.5-55.5 23.5-77-45-19-61.5-8z" transform="rotate(-6 6207.043 -8631.536)"/><path fill-opacity="0" stroke="#3D3D3D" stroke-width="2" d="M1486.56 848.357c-15.26 12.664-40.464 16.822-64.228 20.325-23.764 3.503-51.184 28.034-45.285 57.046 5.204 25.596 31.844 39.89 58.748 37.565 29.906-2.584 60.405-8.863 97.441-34.374 37.036-25.51 30.499-59.011 15.323-79.034-15.177-20.024-46.74-14.193-62-1.528z"/></g><g style="display:block" id="n"><path fill="#FFF" d="M638.033-169.849c-41.207 112.587 498.002-704.754 437.397-537.737-11.827 32.594-744.654 15.526-794.265 19.972-84.82 7.601-1090.514 743.028-1179.146 746.325-15.917.593 94.439 209.272 90.759 178.065-14.53-123.236 483.127-306.895 467.747-485.528-1.182-13.726 402.119 68.144 410.47 55.978 11.633-16.946 32.039-29.524 59.893-29.783 112.027-1.042 349.193-14.511 455.264-10.36 34.205 1.339 62.291 34.624 51.881 63.068z" transform="rotate(-145 914.887 215.665) scale(.5)"/><path fill-opacity="0" stroke="#9DEEC7" stroke-width="6.5" d="M1230.584 803.67C1279.75 769.375 824.5 949.5 897.22 898.474c14.192-9.958 309.445 207.2 331.04 219.606 36.92 21.212 659.74 8.42 696.987 32.488 6.69 4.322 21.337-112.796 13.894-98.96-29.391 54.642-285.89-12.858-330.821 64.717-3.453 5.96-145.156-143.233-152.065-140.645-9.625 3.604-21.59 2.904-33.072-4.979-46.183-31.7-147.183-94.2-189.437-126.32-13.625-10.359-15.583-32.046-3.162-40.71z"/></g><g style="display:block" id="k"><path fill="#DB8D74" d="M521.5 303c-16.5 11-42 12.5-66 13.5s-53.834 22.53-51 52c2.5 26 27.5 43 54.5 43.5 30.012.556 61-2.5 100.5-24s36.5-55.5 23.5-77-45-19-61.5-8z" transform="translate(975 551.5)"/><path fill-opacity="0" stroke="#3D3D3D" stroke-width="2" d="M1496.5 854.5c-16.5 11-42 12.5-66 13.5s-53.834 22.53-51 52c2.5 26 27.5 43 54.5 43.5 30.012.556 61-2.5 100.5-24s36.5-55.5 23.5-77-45-19-61.5-8z"/></g><g style="display:block" id="u"><path fill="#FFF" d="M638.033-169.849c-41.207 112.587 498.002-704.754 437.397-537.737-11.827 32.594-744.654 15.526-794.265 19.972-84.82 7.601-1090.514 743.028-1179.146 746.325-15.917.593 94.439 209.272 90.759 178.065-14.53-123.236 483.127-306.895 467.747-485.528-1.182-13.726 402.119 68.144 410.47 55.978 11.633-16.946 32.039-29.524 59.893-29.783 112.027-1.042 349.193-14.511 455.264-10.36 34.205 1.339 62.291 34.624 51.881 63.068z" transform="rotate(-145 914.887 215.665) scale(.5)"/><path fill-opacity="0" stroke="#9DEEC7" stroke-width="6.5" d="M1230.584 803.67C1279.75 769.375 824.5 949.5 897.22 898.474c14.192-9.958 309.445 207.2 331.04 219.606 36.92 21.212 659.74 8.42 696.987 32.488 6.69 4.322 21.337-112.796 13.894-98.96-29.391 54.642-285.89-12.858-330.821 64.717-3.453 5.96-145.156-143.233-152.065-140.645-9.625 3.604-21.59 2.904-33.072-4.979-46.183-31.7-147.183-94.2-189.437-126.32-13.625-10.359-15.583-32.046-3.162-40.71z"/></g><g style="display:block" id="r"><path fill="#DB8D74" d="M521.5 303c-16.5 11-42 12.5-66 13.5s-53.834 22.53-51 52c2.5 26 27.5 43 54.5 43.5 30.012.556 61-2.5 100.5-24s36.5-55.5 23.5-77-45-19-61.5-8z" transform="translate(975 551.5)"/><path fill-opacity="0" stroke="#3D3D3D" stroke-width="2" d="M1496.5 854.5c-16.5 11-42 12.5-66 13.5s-53.834 22.53-51 52c2.5 26 27.5 43 54.5 43.5 30.012.556 61-2.5 100.5-24s36.5-55.5 23.5-77-45-19-61.5-8z"/></g><linearGradient id="bj" spreadMethod="pad" gradientUnits="userSpaceOnUse" x1="475" y1="-110.003" x2="566.067" y2="-38.825"><stop offset="0%" stop-color="#FFA75F"/><stop offset="50%" stop-color="#FFB78B"/><stop offset="100%" stop-color="#FFC7B8"/></linearGradient><linearGradient id="bf" spreadMethod="pad" gradientUnits="userSpaceOnUse" x1="475" y1="-110.003" x2="566.067" y2="-38.825"><stop offset="0%" stop-color="#FFA75F"/><stop offset="50%" stop-color="#FFB78B"/><stop offset="100%" stop-color="#FFC7B8"/></linearGradient><linearGradient id="bb" spreadMethod="pad" gradientUnits="userSpaceOnUse" x1="475" y1="-110.003" x2="566.067" y2="-38.825"><stop offset="0%" stop-color="#FFA75F"/><stop offset="50%" stop-color="#FFB78B"/><stop offset="100%" stop-color="#FFC7B8"/></linearGradient></defs><g clip-path="url(#am)"><g clip-path="url(#aB)" style="display:block" transform="matrix(-1 0 0 1 1916 -23.5)"><g style="display:block"><path fill="#58CC02" d="M1230.485 803.743c49.265-34.368 132.015-92.243 204.643-143.202 2.002-1.405 3.906-2.71 5.76-3.878 4.8-3.029 9.266-5.15 14.243-5.77 6.718-.835 14.365 1.067 25.027 7.176 36.967 21.181 70.905 41.494 108.168 65.572 4.658 3.01 6.174 7.172 6.757 10.689.983 5.927-.897 11.436-3.946 17.277-3.012 5.768-6.232 11.558-9.996 18.377C1550.5 825.5 1502 911.25 1472.57 961.824c-4.698 8.072-10.57 15.176-16.747 21.73-4.887 5.184-14.269 14.656-20.551 18.658-11.597 7.387-24.773 4.218-34.089-2.01C1359.001 972 1261.5 906.5 1219.247 875.38c-8.648-6.368-11.976-19.711-10.496-25.73 2.25-9.15 4.91-17.376 8.08-24.263 3.17-6.887 7.327-17.231 13.654-21.644z"/><path stroke="#58CC02" stroke-width="6.5" d="M1230.485 803.743c49.265-34.368 132.015-92.243 204.643-143.202 2.002-1.405 3.906-2.71 5.76-3.878 4.8-3.029 9.266-5.15 14.243-5.77 6.718-.835 14.365 1.067 25.027 7.176 36.967 21.181 70.905 41.494 108.168 65.572 4.658 3.01 6.174 7.172 6.757 10.689.983 5.927-.897 11.436-3.946 17.277-3.012 5.768-6.232 11.558-9.996 18.377C1550.5 825.5 1502 911.25 1472.57 961.824c-4.698 8.072-10.57 15.176-16.747 21.73-4.887 5.184-14.269 14.656-20.551 18.658-11.597 7.387-24.773 4.218-34.089-2.01C1359.001 972 1261.5 906.5 1219.247 875.38c-8.648-6.368-11.976-19.711-10.496-25.73 2.25-9.15 4.91-17.376 8.08-24.263 3.17-6.887 7.327-17.231 13.654-21.644z" fill="none"/><path fill="#FFF" d="M1230.584 803.67c49.166-34.295 131.916-92.17 204.637-143.195 14.192-9.958 23.444-14.802 45.039-2.395 36.92 21.212 70.74 41.42 107.987 65.488 6.69 4.322 10.337 14.203 2.894 28.04-29.391 54.642-73.89 133.142-118.821 210.717-8.262 14.263-29.411 21.917-49.137 8.376-46.183-31.7-147.183-94.2-189.437-126.32-13.625-10.359-15.583-32.046-3.162-40.71z"/><path stroke="#9DEEC7" stroke-width="6.5" d="M1230.584 803.67c49.166-34.295 131.916-92.17 204.637-143.195 14.192-9.958 23.444-14.802 45.039-2.395 36.92 21.212 70.74 41.42 107.987 65.488 6.69 4.322 10.337 14.203 2.894 28.04-29.391 54.642-73.89 133.142-118.821 210.717-8.262 14.263-29.411 21.917-49.137 8.376-46.183-31.7-147.183-94.2-189.437-126.32-13.625-10.359-15.583-32.046-3.162-40.71z" fill="none"/></g><g mask="url(#aC)" style="display:block"><g clip-path="url(#aD)"><path fill="#A175F9" d="M313.521 147.211c-2.496-1.135-3.599-4.049-2.476-6.534l35.505-79.229c12.52-26.807 39.038-43.041 67.437-37.268 27.928 5.677 46.166 30.165 46.598 59.638l2.639 84.071c.083 2.638-1.929 4.872-4.581 5.096-10.243.865-36.475 1.188-68.485-3.405-33.355-4.785-65.145-17.141-76.637-22.369z" transform="rotate(-8.852 4580.226 -5877.378)" style="display:block"/><g style="display:block"><path fill="#A570FF" d="M1336.318 765.018c2.964-6.883 13.32-10.033 20.204-7.07 6.882 2.965 13.085 13.88 10.121 20.762 0 0-6.514 18.723-12.437 30.01-5.209 9.926-12.839 21.27-12.839 21.27-6.059 7.406-10.947 10.06-17.83 7.096-6.883-2.964-10.06-10.947-7.095-17.83 0 0 5.968-13.47 9.921-24.254 3.953-10.785 9.955-29.984 9.955-29.984z"/><path fill="#593F86" d="M1336.318 765.018s7.897-30.51 10.089-56.931l36.455 5.696c-.358 25.72-15.554 63.348-15.554 63.348-3.012 1.551-13.404 4.304-20.368 1.305-6.393-2.754-9.735-10.379-10.622-13.418z"/><path fill="#FFC6B7" d="M1387.708 757.417c-.09 5.544-4.658 9.965-10.202 9.876-5.545-.09-9.967-4.658-9.878-10.202.09-5.545 4.658-9.967 10.203-9.878 5.544.09 9.967 4.66 9.877 10.204z"/><path fill="#593F86" d="m1360.504 703.706-47.628 29.4c-11.237 6.937-6.568 24.241 6.633 24.582l79.735 2.062c13.24.342 18.772-16.782 7.833-24.249l-46.573-31.795z"/><path fill="#FFC6B7" d="M1358.954 735.08c-7.048-4.577-10.32-7.983-15.08-8.06-4.674-.076-8.643 3.058-9.831 7.363 5.113.152 17.563.492 24.911.698z"/></g><path fill="#FFC6B7" d="m452.42 91.527 4.291.879c6.08 1.246 9.997 7.025 8.751 12.908-1.246 5.883-7.186 9.642-13.265 8.396l-4.292-.88c-6.08-1.245-9.998-7.024-8.75-12.907 1.246-5.883 7.185-9.642 13.265-8.396zM416.72 32.314c24.256 5.058 40.846 27.56 38.541 52.277l-5.116 39.92c-2.524 13.181-12.859 21.445-25.152 20.885-12.066-.55-19.554-1.305-35.019-2.624-15.465-1.319-26.56-9.131-26.56-9.131-12.999-2.711-21.339-15.466-18.628-28.489a24.11 24.11 0 0 1 .936-3.302l13.566-37.444c8.519-23.515 32.991-37.189 57.432-32.092z" transform="rotate(-4.852 7610.22 -11030.844)" style="display:block"/><path fill="#FFF" d="M412.599 78.212c-6.132 3.04-7.257 9.111-7.45 10.036l-2.078 9.955c-.804 3.852 1.678 7.626 5.543 8.43l7.348 1.528c7.924 1.648 15.683-3.417 17.331-11.313.495-2.371 3.308-16.424 3.308-16.424s-16.193-6.083-24.002-2.212zm-14.702-3.734c3.902 5.915 3.593 9.268 3.279 11.761-.411 3.262-1.961 10.655-1.961 10.655-.863 4.124-4.939 6.767-9.102 5.904l-7.271-1.508c-8.179-1.696-13.434-9.638-11.738-17.74.661-3.158 3.897-16.189 3.897-16.189s19.186 1.492 22.896 7.117z" transform="rotate(-4.882 7596.96 -11077.995)" style="display:block"/><g mask="url(#aE)" style="display:block"><path fill="#3D3D3D" d="M1402.834 661.436c-.511 3.828-3.67 6.297-7.232 5.855-3.562-.443-6.053-3.791-5.667-7.456.385-3.665 1.061-9.897 1.061-9.897l13.078.965s-.73 6.704-1.24 10.533zm-29.278-2.18c-.376 4.327-3.67 6.297-7.232 5.854-3.562-.442-6.013-4.022-5.667-7.456.355-3.519.692-8.282.692-8.282l12.64 1.07s-.057 4.486-.433 8.813z"/></g><g mask="url(#aF)" style="display:block"><path fill="#A570FF" d="m1415.93 646.22-1.153 16.503-71.238-6.9 2.196-17.804 70.196 8.202z"/></g><path fill="#FFC6B7" d="M392.238 134.582a27.84 27.84 0 0 1 .557-7.168c3.172-15.155 18.137-24.871 33.426-21.7 4.08.846 7.06 2.538 9.233 4.487 5.034 4.515-43.121 26.188-43.216 24.381z" transform="rotate(-4.882 7596.96 -11077.995)" style="display:block"/><path fill="#EE9583" d="M404.942 119.172c5.947-7.414 11.462-9.776 16.117-6.04.85.682.993 1.938.319 2.804a1.942 1.942 0 0 1-2.757.333c-2.469-1.981-5.872-.523-10.64 5.42a1.942 1.942 0 0 1-2.762.291 2.018 2.018 0 0 1-.277-2.808zm-7.456-4.456c3.258.67 6.439-1.349 7.106-4.511.667-3.162-3.654-11.853-3.654-11.853l-.905.784c-2.011 1.78-6.716 6.163-7.239 8.641-.667 3.162 1.434 6.268 4.692 6.939z" transform="rotate(-4.852 7638.938 -11149.572)" style="display:block"/><path fill="#A570FF" d="M317.487 151.331c14.939-40.032 33.041-127.467 89.887-122.518a2.7 2.7 0 0 1 2.024 1.273c6.887 11.194-19.673 94.893-24.204 116.287-.547 2.583-2.975 3.862-5.614 3.912-18.096.34-47.857 1.358-62.093 1.046zM428.486 34.052c17.261 6.726 29.208 23.333 28.949 47.181 0 0-22.733-3.946-26.38-4.874-19.373-4.201-23.636-21.222-23.497-41.285l-4.934-6.039c8.329-.365 18.488 2.143 25.862 5.017z" transform="rotate(-4.852 7610.22 -11030.844)" style="display:block"/></g></g><g mask="url(#aG)" style="display:block"><g clip-path="url(#aH)"><path fill="#E6A000" d="M0-59.292c32.723 0 59.292 26.569 59.292 59.292S32.723 59.292 0 59.292-59.292 32.723-59.292 0-32.723-59.292 0-59.292z" transform="matrix(.38973 .12663 -.0618 .19021 1493.225 685.26)" style="display:block"/><g style="display:block"><path fill="#FFC700" d="M1479.054 669.314c9.753-2.106 24.531 2.008 33.007 9.188 8.475 7.18 7.44 14.708-2.315 16.814-9.753 2.106-24.531-2.007-33.007-9.188-8.475-7.18-7.439-14.708 2.315-16.814z"/><path fill="#FFE700" d="M1506.04 676.633a28.068 28.068 0 0 1 3.133 2.286c1.821 1.542 3.122 3.104 3.912 4.604.165.313-.197.356-.652.456-4.6 1.008-22.786 4.933-25.267 5.457-.34.072-.928.213-1.803-.188-2.292-1.052-4.25-2.435-5.976-3.898a19.501 19.501 0 0 1-2.538-2.554c-.142-.175-.415-.45.61-.672 4.43-.957 20.728-4.438 26.91-5.773.817-.177 1.297.045 1.672.282zm-24.7-5.462c5.383-1.163 12.583-.078 18.92 2.509.45.184 1.581.769.25 1.082-1.333.313-21.493 4.574-23.888 5.091-1.403.303-1.725-.438-1.795-.671-1.11-3.721 1.123-6.847 6.512-8.011z"/></g><path fill="#E6A000" d="M0-59.292c32.723 0 59.292 26.569 59.292 59.292S32.723 59.292 0 59.292-59.292 32.723-59.292 0-32.723-59.292 0-59.292z" transform="matrix(.4813 .24524 -.13166 .2584 1514.025 734.632)" style="display:block"/><g style="display:block"><path fill="#FFC700" d="M1499.117 709.767c13.434-1.32 31.865 7.007 41.167 18.597 9.302 11.59 5.953 22.057-7.48 23.377-13.434 1.32-31.865-7.007-41.167-18.597-9.302-11.59-5.953-22.057 7.48-23.377z"/><path fill="#FFE700" d="M1532.827 724.7a34.675 34.675 0 0 1 3.535 3.763c1.998 2.49 3.304 4.919 3.953 7.173.136.47-.354.47-.98.534-6.34.643-31.386 3.102-34.8 3.422-.468.043-1.283.143-2.332-.573-2.75-1.876-4.97-4.164-6.865-6.525-1.101-1.373-1.992-2.727-2.679-4.043-.142-.271-.43-.707.982-.846 6.102-.6 28.537-2.752 37.053-3.588 1.125-.111 1.7.283 2.133.682zm-31.18-11.92c7.415-.728 16.636 2.03 24.322 6.762.546.337 1.887 1.356.046 1.572-1.841.217-29.584 2.815-32.882 3.14-1.932.19-2.162-.914-2.193-1.255-.487-5.449 3.284-9.489 10.706-10.218z"/></g><path fill="#E6A000" d="M0-59.292c32.723 0 59.292 26.569 59.292 59.292S32.723 59.292 0 59.292-59.292 32.723-59.292 0-32.723-59.292 0-59.292z" transform="matrix(.6486 .38971 -.22476 .37406 1500.135 794.898)" style="display:block"/><g style="display:block"><path fill="#FFC700" d="M1482.475 757.503c19.29-1.18 44.282 12.171 55.821 29.82 11.54 17.65 5.256 32.914-14.034 34.095-19.29 1.18-44.282-12.171-55.821-29.82-11.54-17.65-5.256-32.914 14.034-34.095z"/><path fill="#FFE700" d="M1528.227 781.484a46.427 46.427 0 0 1 4.478 5.761c2.48 3.791 3.983 7.453 4.578 10.82.125.703-.572.674-1.472.732-9.107.587-45.072 2.785-49.973 3.061-.67.038-1.843.139-3.23-.98-3.636-2.926-6.46-6.434-8.81-10.029-1.367-2.09-2.437-4.14-3.222-6.123-.162-.409-.509-1.069 1.52-1.193 8.761-.536 40.97-2.43 53.198-3.18 1.616-.098 2.376.517 2.933 1.131zm-42.595-19.386c10.65-.651 23.358 3.948 33.597 11.378.727.528 2.484 2.11-.165 2.324-2.648.214-42.467 2.464-47.203 2.754-2.775.17-2.942-1.473-2.935-1.979.099-8.074 6.049-13.825 16.706-14.477z"/></g><path fill="#E6A000" d="M0-59.292c32.723 0 59.292 26.569 59.292 59.292S32.723 59.292 0 59.292-59.292 32.723-59.292 0-32.723-59.292 0-59.292z" transform="matrix(.68536 .4799 -.32116 .45866 1420.606 831.336)" style="display:block"/><g style="display:block"><path fill="#FFC700" d="M1406.454 784.874c22.482-1.404 49.164 15.042 59.597 36.735 10.432 21.692.663 40.415-21.819 41.82-22.482 1.404-49.164-15.043-59.597-36.735-10.432-21.692-.663-40.416 21.819-41.82z"/><path fill="#FFE700" d="M1455.376 814.418a47.284 47.284 0 0 1 4.228 7.082c2.24 4.66 3.377 9.157 3.511 13.292.028.863-.772.826-1.822.895-10.618.7-52.534 3.315-58.242 3.643-.78.044-2.152.165-3.572-1.21-3.72-3.602-6.406-7.914-8.531-12.332-1.236-2.57-2.135-5.088-2.716-7.525-.12-.502-.412-1.313 1.952-1.46 10.21-.638 47.738-2.89 61.989-3.78 1.883-.118 2.66.639 3.203 1.395zm-46.03-23.896c12.412-.776 26.34 4.9 36.949 14.044.754.65 2.524 2.596-.572 2.852-3.095.257-49.473 2.927-54.992 3.272-3.235.202-3.157-1.815-3.067-2.436 1.442-9.91 9.261-16.956 21.683-17.732z"/></g><path fill="#E6A000" d="M0-59.292c32.723 0 59.292 26.569 59.292 59.292S32.723 59.292 0 59.292-59.292 32.723-59.292 0-32.723-59.292 0-59.292z" transform="matrix(.81915 .57358 -.43018 .61436 1303.57 843.462)" style="display:block"/><g style="display:block"><path fill="#FFC700" d="M1289.189 784.783c28.033-3.338 60.076 16.103 71.57 43.422 11.493 27.32-1.915 52.173-29.948 55.511-28.033 3.339-60.076-16.102-71.57-43.422-11.493-27.32 1.915-52.173 29.948-55.511z"/><path fill="#FFE700" d="M1347.981 819.638a53.725 53.725 0 0 1 4.773 8.863c2.47 5.869 3.577 11.603 3.463 16.936-.023 1.113-1.016 1.12-2.325 1.28-13.243 1.624-65.508 7.844-72.623 8.654-.973.11-2.685.36-4.357-1.32-4.378-4.402-7.424-9.79-9.765-15.355-1.362-3.236-2.308-6.43-2.865-9.538-.115-.64-.423-1.669 2.524-2.02 12.733-1.516 59.52-6.969 77.29-9.085 2.347-.28 3.261.645 3.885 1.585zm-55.58-27.754c15.475-1.843 32.399 4.545 44.963 15.641.892.788 2.96 3.183-.904 3.724-3.864.542-61.677 7.135-68.56 7.954-4.032.48-3.8-2.13-3.645-2.939 2.463-12.903 12.658-22.536 28.146-24.38z"/></g></g></g><path stroke="#9DEEC7" stroke-width="13" d="M396.003 355.089c-84.82 7.601-163.41 13.29-252.041 16.588-15.917.592-33.228-11.412-36.908-42.619-14.53-123.235-31.678-302.891-47.058-481.524-2.828-32.845 23.041-69.646 70.892-70.091 112.027-1.042 349.193-14.511 455.264-10.36" fill="none" transform="rotate(-145 914.887 215.665) scale(.5)" style="display:block"/></g><g clip-path="url(#aU)" style="display:block" transform="matrix(-1 0 0 1 1976 -43.5)"><g style="display:block"><path stroke-linecap="round" stroke-miterlimit="10" stroke="#CC348D" stroke-width="23" d="M1746.61 390.64c-2.477-14.958 28.555-17.867 47.66-2.031" fill="none"/><path fill="#C6775C" d="M1761.57 388.162c1.368 8.261-4.22 16.067-12.481 17.436-8.262 1.369-16.068-4.219-17.436-12.48-1.37-8.261 4.218-16.069 12.48-17.437 8.26-1.369 16.068 4.22 17.437 12.48z"/><path fill="#5EC6FF" d="M1783.836 417.704c-2.273 9.629-17.117 14.365-33.154 10.58-16.037-3.786-27.195-14.662-24.922-24.29 2.273-9.63 16.444-27.126 35.971-22.517 19.669 4.643 24.377 26.598 22.105 36.227z"/><path fill="#0084C2" d="M1783.836 417.704c-2.273 9.629-17.117 14.365-33.154 10.58-16.037-3.786-27.195-14.662-24.922-24.29 2.273-9.63 17.116-14.366 33.153-10.58 16.038 3.785 27.195 14.66 24.923 24.29z"/><path fill="#FFCC76" d="M1758.913 393.413c-9.097-2.148-17.808-1.55-24.06 1.125-.233 5.934-.398 14.175-.152 16.266.014.123-.076.24-.07.367.354 6.887 3.665 12.443 10.145 13.32 4.693.636 9.105-1.58 11.52-5.308a13.209 13.209 0 0 0 6.934 3.146c7.27.984 13.961-4.11 14.945-11.38.479-3.532.206-4.184 1.338-6.246-4.446-4.982-11.782-9.208-20.6-11.29z"/></g><g mask="url(#aV)" style="display:block"><path stroke-linecap="round" stroke-miterlimit="10" stroke="#FFCC76" stroke-width="4.148" d="M1799.9 313.744c-15.005 5.936-35.668 28.564-26.604 33.43 9.063 4.867 19.32-25.118 43.35-18.196m-19.083 8.462c-11.607 6-19.927 19.961-31.715 40.149m33.583-34.27c-5.184 5.024-7.887 7.569-14.165 17.042-6.278 9.473-14.148 18.623-17.818 30.865" fill="none"/></g><path fill="#0084C2" d="M732.862-124.382c4.759-25.473 29.266-42.264 54.739-37.505s42.265 29.265 37.506 54.738-29.266 42.265-54.739 37.506-42.265-29.266-37.506-54.739z" transform="rotate(4.703 -5842.223 12688.798)" style="display:block"/><g mask="url(#aW)" style="display:block"><path fill="#006AAD" d="M1849.712 507.416c-17.171-1.516-34.196-4.112-49.395-20.638l-6.97.431c18.215 21.133 38.869 24.194 50.367 24.636a47.202 47.202 0 0 0 5.998-4.429z"/><path fill="#C6775C" d="M1788.844 415.548c4.486-16.005 21.05-25.387 37.083-21.005 16.106 4.402 25.596 21.027 21.194 37.135l-9.606 35.147c-1.094 3.999-3.972 7.276-7.814 8.834-15.825 6.417-28.223 10.84-32.903 12.472a3.209 3.209 0 0 1-3.474-.89c-8.134-9.19-12.967-19.713-15.126-25.168-.952-2.403-.98-5.042-.282-7.531l10.928-38.994z"/><path stroke-linecap="round" stroke="#FFF" stroke-width="20.813" d="m1787.788 457.383 2.624-8.413m20.18 15.182 1.678-6.145" fill="none"/><path stroke-linecap="round" stroke="#3D3D3D" stroke-width="9.4" d="M1808.945 461.515s-1.116 2.492-1.324 5.015m-18.625-12.289s-.524 3.28-1.916 5.538" fill="none"/><path fill="#FFF" d="M1783.518 457.638c1.714.88 2.55 3.497 1.544 5.169-4.162 7.25-9.112-7.83-1.544-5.17zm19.43 7.73c2.04.593 3.37 2.582 2.543 4.757-2.673 4.669-6.315-4.172-2.543-4.757z"/><path fill="#C6775C" d="M1791.133 446.441a6.295 6.295 0 1 1 12.09 3.503 6.295 6.295 0 0 1-12.09-3.503z"/></g><path stroke-linecap="round" stroke="#3D3D3D" stroke-width="46.998" d="M806.508-160.321c-17.756 5.031-37.78.251-40.643-7.859" fill="none" transform="translate(1029.387 586.261)" style="display:block"/><path fill="#FFF" d="m756.151-159.828.792-1.802a5.805 5.805 0 0 1 10.63 4.672l-.792 1.802a5.805 5.805 0 0 1-10.63-4.672z" transform="translate(1029.512 586.386)" style="display:block"/><path fill="#CC348D" d="M745.232-224.137c-.304-28.44 22.505-51.741 50.945-52.045 28.44-.304 51.741 22.506 52.045 50.946.304 28.44-22.505 51.74-50.945 52.044-28.44.304-51.741-22.505-52.045-50.945z" transform="rotate(-4.703 8477.683 -12417.757)" style="display:block"/><path stroke-linecap="round" stroke-linejoin="round" stroke="#CC348D" stroke-width="23" d="M831.156-200.796s8.441 3.843 7.283 8.874c-2.792 12.125-24.863 15.5-24.863 15.5" fill="none" transform="rotate(-4.703 8477.683 -12417.757)" style="display:block"/><g mask="url(#aX)" style="display:block"><path fill="#0084C2" d="M1756.496 359.362c1.536-24.9 16.572-53.622 58.227-57.368 41.655-3.746 81.073 16.137 74.725 41.646-4.943 19.864-24.915 31.384-71.498 31.314-44.435-.066-61.616-12.964-61.454-15.592z"/><path stroke="#00448E" stroke-width="11" d="M1756.496 359.362c1.536-24.9 16.572-53.622 58.227-57.368 41.655-3.746 81.073 16.137 74.725 41.646-4.943 19.864-24.915 31.384-71.498 31.314-44.435-.066-61.616-12.964-61.454-15.592z" fill="none"/></g><g style="display:block"><path stroke-linecap="round" stroke-linejoin="round" stroke="#0084C2" stroke-width="20" d="M1815.01 325.81s-35.492-8.53-46.736-16.04c1.183-12.133 18.113-29.766 26.292-40.868" fill="none"/><path stroke-linecap="round" stroke-linejoin="round" stroke="#CC348D" stroke-width="14" d="M1815.036 259.403c-2.775-5.326-7.998-11.16-12.186-13.613" fill="none"/></g><g style="display:block"><path stroke-linecap="round" stroke-linejoin="round" stroke="#0084C2" stroke-width="20" d="M1815.242 325.713s-55.32 9.101-94.345-25.3" fill="none"/><path stroke-linecap="round" stroke-linejoin="round" stroke="#CC348D" stroke-width="14" d="M1707.726 280.308c-2.827 1.933-9.897 7.685-14.14 12.548" fill="none"/></g><g style="display:block"><path stroke-linecap="round" stroke-linejoin="round" stroke="#DAAF83" stroke-width="5" d="m1874.313 420.38-59.668 4.875m57.451 4.29-56.89 1.07" fill="none"/><path stroke-linecap="round" stroke-linejoin="round" stroke="#C6775C" stroke-width="9" d="m1842.254 424.016-8.524 8.161" fill="none"/><path fill="#C6775C" d="m1844.59 428.084 4.246-4.17a8.535 8.535 0 0 0 .109-12.07l-3.69-3.757a8.534 8.534 0 0 0-12.07-.108l-4.246 4.172a8.534 8.534 0 0 0-.108 12.07l3.69 3.755a8.536 8.536 0 0 0 12.07.108z"/></g></g><g clip-path="url(#bg)" style="display:block" transform="matrix(-1 0 0 1 1916 -23.5)"><g style="display:block"><path stroke-linecap="round" stroke-linejoin="round" stroke="#FFC6B7" stroke-width="12" d="M1464.917 603.108c-2.885-2.002-13.024-3.282-19.437-2.653m-5.062 8.11c7.097.312 17.057-.151 22.32 1.399m-19.756 12.844c9.954-5.172 16.98-6.292 22.193-5.498m-2.135 16.987s2.687-9.238 8.313-16.865" fill="none"/><path stroke-linecap="round" stroke-linejoin="round" stroke="#FFC6B7" stroke-width="36" d="M1491.81 600.259c-9.877 3.12-14.461 4.77-22.636 8.61" fill="none"/><path stroke-linecap="round" stroke-linejoin="round" stroke="#33E3FF" stroke-width="36" d="M1509.313 595.387c-8.852 1.512-19.633 5.349-28.059 8.6" fill="none"/></g><path fill="#33E3FF" d="M632.11-113.808c10.897-27.659-27.424-59.245-59.226-46.321-29.13 10.998-43.846 22.406-43.846 22.406-12.918 8.487 82.039 97.759 87.973 72.376 0 0 4.812-24.04 15.098-48.461z" transform="rotate(-3.462 10554.761 -15908.295)" style="display:block"/><path stroke-linecap="round" stroke="#393939" stroke-width="27" d="m683.25 34.5 4.25 3.5" fill="none" transform="rotate(-25.86 2314.635 -1820.735)" style="display:block"/><path stroke-linecap="round" stroke-linejoin="round" stroke="#393939" stroke-width="23" d="m613.75 94-8.25 3.75" fill="none" transform="rotate(-27.621 2201.073 -1639.418)" style="display:block"/><path fill="#FFC7B8" d="M552.811-154.957c-14.873-8.982-34.962-11.237-52.179-1.891l-28.256 15.339a51.11 51.11 0 0 0-25.616 34.316l-7.98 37.63C434.57-49.714 440-30 458.986-17.428 477.972-4.856 510.5 12 528.501 43.852c6.897 12.204 42.974 11.603 54.934 7.15l38.691-9.376A38.335 38.335 0 0 0 651.93 8.839l6.319-51.72c-.568-6.318-6.973-19.296-11.519-26.102C621-107.5 590-132.5 552.811-154.957z" transform="rotate(-7.942 5190.567 -6819.459)" style="display:block"/><path fill="#EE9583" d="M523.147-6.062c2.236 3.145 5.699 3.51 8.324 1.644 2.625-1.866 3.418-5.255 1.182-8.401-2.236-3.145-9.483-4.798-10.202-4.287-.718.51-1.54 7.899.696 11.044z" transform="rotate(-7.942 5187.209 -6818.205)" style="display:block"/><g style="display:block"><path fill="#FFF" d="M1487.534 552.835c-8.035-4.403-20.148-2.513-25.724 4.014-4.607 5.39-3.092 12.124 3.544 15.761l9.946 5.451c8.034 4.403 20.147 2.513 25.724-4.015 4.606-5.39 3.092-12.124-3.544-15.761l-9.946-5.45zm29.787-24.333c-8.002-4.387-19.14-1.966-24.653 5.356-5.32 7.066-3.404 16.08 4.321 20.313l9.098 4.986c8.003 4.386 19.143 1.965 24.655-5.356 5.32-7.068 3.403-16.08-4.322-20.313l-9.099-4.986z"/><path fill="#FFC7B8" d="M1532.77 537.354c-5.158 4.637-10.743 17.767-11.932 27.127l16.12-14.493c.753-6.143.97-17.27-4.188-12.634z"/><path fill="#EE9583" d="M1529.545 556.29a2.223 2.223 0 0 0-1.705 2.64c.477 2.213.55 4.397-.01 6.496-.555 2.076-1.77 4.21-4.09 6.286a2.219 2.219 0 0 0-.174 3.135 2.22 2.22 0 0 0 3.135.175c2.913-2.606 4.622-5.471 5.42-8.449.789-2.954.641-5.88.062-8.578a2.221 2.221 0 0 0-2.638-1.705z"/><path fill="#4B4B4B" d="M1503.609 541.697a4.246 4.246 0 0 0 2.177 3.127c2.043 1.12 4.587.41 5.68-1.584a4.07 4.07 0 0 0 .275-.622l5.023 2.614c3.598 1.873 4.533 6.012 2.091 9.255-2.452 3.257-7.384 4.376-11 2.494l-6.107-3.179c-3.598-1.873-4.534-6.01-2.094-9.253.995-1.322 2.398-2.291 3.955-2.852zm-14.976 16.23c.173.08.341.166.507.257l5.267 2.885c3.888 2.13 4.815 6.061 2.18 9.245-2.292 2.769-7.399 3.594-10.783 1.741l-7.567-4.147c-3.227-1.767-3.997-5.028-1.81-7.67.974-1.177 2.377-2.057 3.96-2.598a4.503 4.503 0 0 0 2.16 2.609c2.104 1.152 4.673.512 5.737-1.43a3.75 3.75 0 0 0 .349-.891z"/></g><g mask="url(#bh)" style="display:block"><g clip-path="url(#bi)" transform="rotate(-1.88 1586.383 476.584) scale(1.00759)"><g style="display:block"><path fill="#FFC7B8" d="M1531.072 472.95c5.547 1.538 10.722-2.436 11.558-8.872.835-6.437-2.985-12.9-8.532-14.438-5.547-1.538-10.722 2.436-11.557 8.872-.836 6.437 2.985 12.9 8.531 14.438z"/><path fill="#0084C2" d="M1476.51 610.578s56.633 59.035 75.738 52.288l84.852-53.299c15.31-5.119 16.846-112.947 8.034-122.726l-46.156-33.193-.192-.139-6.05-4.349-7.1 111.687-109.126 49.731z"/><path fill="#33E3FF" d="M1599.227 458.011c-6.193-5.901-32.26-23.432-32.26-23.432a89.37 89.37 0 0 1 2.122 5.235c15.96 43.123 4.178 106.142 2.463 109.162-15.069 26.531-97.039 53.239-102.455 51.97l17.197 15.416c27.382 2.193 90.182-24.41 102.765-40.754 10.975-14.252 13.347-94.227 10.168-117.597z"/></g><path fill="url(#bj)" d="M542.287-73.808a20.443 20.443 0 0 0-21.744-1.686l-66.346 34.981c-4.69 2.473-5.503 8.833-1.52 12.333 4.619 4.057 18.803 15.086 20.93 16.441 2.539 1.618 3.641 4.492 3.329 7.164L455.999 7.558C439.513-4.27 412.084-46.23 416.293-66.078c0 0 3.246-69.461 16.083-76.429 0 0 91.517-46.369 107.436-34.95l29.674 16.915 1.147.654-.456 92.437a8.424 8.424 0 0 1-7.201 8.168c-.631.092-20.689-14.525-20.689-14.525z" transform="rotate(-6.1 6395.181 -8836.617)" style="display:block"/></g></g><path fill="#FF9500" d="M471.026-93.178c12.861-.061 20.271-10.927 20.212-24.286-.06-13.36-7.567-24.151-20.427-24.09-12.861.063-21.458 10.933-21.4 24.292.06 13.36 8.754 24.146 21.615 24.084zM468.88-56.55c14.461-1.489 24.88-15.348 23.271-30.952-1.609-15.606-14.636-27.05-29.097-25.56-14.461 1.49-24.88 15.347-23.272 30.952 1.61 15.606 14.637 27.05 29.098 25.56z" transform="rotate(13.724 -1520.67 4256.368)" style="display:block"/><path fill="#33E3FF" d="M637.81-65.136C633.75-56 626.831-54.6 622.786-55.983c-5.465-1.15-9.63-7.729-9.02-16.257 1.234-17.26 7.984-33.01 13.266-43.535 4.773-9.512 15.718-11.975 22.54-8.794 6.779 3.161 12.82 11.1 7.698 20.625-6.02 11.194-15.4 29.672-19.46 38.808z" transform="rotate(-3.462 10674.97 -15957.464)" style="display:block"/><g style="display:block"><path fill="#FFC6B7" d="M1634.511 456.027c-5.896-7.693-16.197-10.396-25.041-4.071-7.794 5.575-10.22 15.686-3.815 23.747 5.843 7.354 16.186 9.834 24.998 3.821 8.867-6.046 9.755-15.804 3.858-23.497z"/><path stroke-linecap="round" stroke="#EE9583" stroke-width="3.796" d="M1618.913 461.987c3.328 1.57 6.531 5.309 6.42 7.816" fill="none"/><path stroke-linecap="round" stroke-linejoin="round" stroke="#FFC6B7" stroke-width="12" d="M1611.411 456.129c-.242-4.125-1.81-8.276.141-12.077m20.7-2.793c-6.488-.057-13.584 7.447-13.208 10.964m23.687-3.59c-4.193 1.028-15.54 4.285-15.194 10.178m17.643 2.863c-4.244-2.15-10.704.343-12.311 5.098" fill="none"/></g></g><g clip-path="url(#bq)" style="display:block" transform="matrix(-1 0 0 1 1976 -43.5)"><path fill="#58CC02" d="M303.202-41.464c15.252 94.999-16.572 140.035-80.655 155.537-84.448 20.428-144.155-35.09-168.05-85.71C36.399-9.976 30.529-48.421 30.576-88.823c-.152-43.846 11.829-87.993 50.38-103.38 17.555-7.008 35.65-7.743 49.066-1.805 20.792 9.205 29.339 14.226 37.058 18.26 4.231 2.212 127.298 79.321 136.122 134.284zm15-4c15.252 94.999-31.572 144.035-95.655 159.537-84.448 20.428-134.794-43.146-151.05-96.71C16-165.5 159.361-179.783 167.08-175.747a21.636 21.636 0 0 0 13.787 2.147c13.9-2.465 30.544-12.23 54.36-20.819 30.508-10.997 70.141 5.755 71.862 45.004 0 0 2.289 48.988 11.113 103.951z" transform="rotate(-2.989 12395.394 -19598.074)" style="display:block"/><path fill="#58CC02" d="M194.4-10.921c41.197 33.255 100.112 36.257 145.734 6.363 45.621-29.893 66.603-85.246 52.867-136.495-2.857-10.667-15.283-15.388-24.539-9.323L195.78-37.227c-9.256 6.065-9.954 19.384-1.38 26.306z" transform="rotate(21.002 -807.64 3052.191)" style="display:block"/><path fill="#58CC02" d="M198.976.515c-26.37 45.909-80.206 70.027-133.554 58.669C12.074 47.826-27.518 3.817-33.258-48.93c-1.195-10.977 8.679-19.874 19.504-17.569L188.17-23.511C198.993-21.206 204.464-9.04 198.976.515z" transform="rotate(-26.98 1873.656 -1871.71)" style="display:block"/><path stroke-linecap="round" stroke-linejoin="round" stroke="#F49000" stroke-width="35" d="M256.25 102.5 260 74.75" fill="none" transform="rotate(6.175 -4720.89 10088.508)" style="display:block"/><path stroke-linecap="round" stroke-linejoin="round" stroke="#F49000" stroke-width="35" d="m138 147-27-7.75" fill="none" transform="rotate(15.338 -1561.525 4291.155)" style="display:block"/><g mask="url(#bs)" style="display:block"><path fill="#89E219" d="M1234.05 631.64c-1.041 8.755-7.728 16.091-16.662 18.025-8.935 1.934-17.896-2.016-22.233-9.605-.902-1.58.031-3.603 1.843-3.996l34.746-5.444c1.813-.377 2.523-.801 2.307 1.02zm-58.415 12.378c-2.24 8.51-9.869 14.775-18.98 15.359-9.112.584-17.439-4.66-20.684-12.818-.676-1.697.528-3.56 2.376-3.678l34.488-2.211c1.849-.119 3.266 1.577 2.8 3.348zm35.745 20.108c-1.445 8.365-8.464 15.098-17.48 16.534-9.016 1.432-17.786-2.79-21.768-10.291-.829-1.56.198-3.46 2.027-3.751l33.203-6.115c1.829-.303 4.319 1.882 4.018 3.623zm22.75-68.546c-22.275 1.37-42.274-10.68-52.08-29.185-8.177.473-14.106.805-17.775 1.021-6.519.387-11.857.708-16.006.964-5.561 19.498-18.315 33.341-35.77 34.718-20.563 1.623-41.203-22.193-43.722-52.331-1.903-22.754-2.198-33.994-.618-46.24 1.696-13.142 6.568-22.62 14.01-29.485.392-11.902 9.59-22.276 13.983-22.425 2.473-.083 2.14.857 1.994 14.187 4.268-17.823 13.497-23.379 17.562-26.47 5.09-3.871 11.104-5.81 11.417 2.41.15 3.911 3.465 46.773 28.257 47.52 2.34.07 3.84.064 6.789-.248 15.371-1.625 44.306-34.26 55.567-47.683 7.006-8.352 11.538-6.818 13.313-4.19 4.034 5.968 5.52 12.243 4.665 18.63l9.402-11.978c1.85-2.346 5.45-2.23 7.12.24 4.347 6.428 6.178 14.055 5.478 21.541 14.847 9.043 25.172 24.958 26.328 43.619l1.67 27.062c1.873 30.339-21.222 56.456-51.584 58.323z"/></g><g style="display:block"><path fill="#F49000" d="M1188.94 564.957c-.655-10.602-9.779-18.665-20.38-18.01-10.005.616-17.857 8.813-18.044 18.835l-.06 26.549c-.224 11.937 9.786 21.525 21.702 20.79 11.271-.695 19.844-10.396 19.15-21.667l-2.369-26.497z"/><path fill="#B16900" d="M1182.136 566.973c.187-8.205-6.685-14.815-14.877-14.31-7.27.45-12.985 6.391-13.15 13.673l-.157 25.432c-.187 8.206 6.685 14.814 14.877 14.31 7.27-.45 12.985-6.39 13.15-13.673l.157-25.432z"/><path fill="#FFB8D1" d="M1182.37 575.448c-.168.007-.337.014-.505.025-12.629.78-22.236 11.648-21.456 24.277a23.02 23.02 0 0 0 .752 4.592 13.93 13.93 0 0 0 7.673 1.735c7.27-.448 12.985-6.39 13.15-13.672l.386-16.957z"/><path fill="#FFC200" d="M1137.557 568.724c-.13.741.31 1.456 1.019 1.712l10.216.874 41.24-4.367c.924-.161 1.518-1.076 1.23-1.968-3.807-11.756-15.193-20.436-28.096-19.64-13.059.804-23.445 11.044-25.61 23.389z"/><path fill="#FFDE00" d="M1167.02 556.847c2.1.8 4.392-.33 5.145-2.417.754-2.088-.282-4.537-2.417-5.145-4.167-1.188-9.291-1.105-13.383.732-2.025.91-2.98 3.241-2.103 5.28.877 2.039 3.227 2.947 5.28 2.104 1.761-.723 5.378-1.354 7.478-.554z"/></g><g style="display:block"><path fill="#FFF" d="M1267.19 535.288c1.302 21.12-14.763 39.296-35.883 40.599-21.12 1.303-39.296-14.762-40.6-35.882l-1.326-21.51c-1.303-21.12 14.762-39.297 35.882-40.6 21.12-1.302 39.296 14.762 40.599 35.882l1.327 21.511zm-129.477 7.986c1.302 21.12-10.77 39.05-26.966 40.05-16.193.998-30.38-15.313-31.682-36.432l-1.327-21.511c-1.303-21.12 10.771-39.05 26.964-40.049 16.196-.999 30.38 15.312 31.683 36.432l1.328 21.51z"/><path fill="#4B4B4B" d="M1103.015 540.381c.78 9.887 7.76 17.399 15.578 16.777 7.817-.621 13.513-9.135 12.723-19.022l-1.518-19.094c-12.483 6.511-20.352-10.327-11.887-16.621-.661-.268-2.572-.39-3.69-.155-9.623 1.949-13.534 11.575-12.376 23.4.918 9.476 1.17 14.715 1.17 14.715zm94.998-5.515c.35 9.908 8.672 17.665 18.59 17.304 9.91-.35 17.655-8.671 17.305-18.59l-.688-19.137c-13.488 5.394-19.148-9.513-15.019-17.09a19.074 19.074 0 0 0-3.571-.225 17.86 17.86 0 0 0-5.446 1.052c-9.803 4.1-11.909 15.099-11.7 21.928.217 6.829.53 14.758.53 14.758z"/><path fill="#8EDF00" d="M1104.896 477.981c-25.973 1.987-30.162 15.485-31.156 23.592-2.096 17.082 2.27-1 2.27-1 16.649-25.68 47.723-24.727 65.17 11.96 4.167-20.409-.363 1.173-2.644-13.454-2.28-14.627-15.133-22.513-33.64-21.098zm-19.385 107.745c6.11 2.922 8.377 7.163 22.96 9.952 14.582 2.789 10.94 2.857 13.191 3.201-3.758-2.088-29.79-9.982-36.151-13.153zm140.205-112.375c-30.951-.178-41.075 20.652-40.468 37.878.607 17.227.376 1.252.376 1.252 7.49-48.996 59.99-48.709 81.24-17.701-.156-8.047 2.853 21.599 1.19 6.82-1.661-14.78-20.285-28.123-42.338-28.25zm-4.461 115.147c-12.642-1.825-16.645-2.559 7.304 1.824 19.284 3.529 31.798-5.359 40.82-16.547-5.541 6.424-25.753 16.006-48.124 14.723z"/></g></g><g clip-path="url(#bF)" style="display:block" transform="matrix(-1 0 0 1 1976 -43.5)"><path fill="#FFCBA3" d="M210.172-328.944c6.45 0 11.68 5.286 11.68 11.806s-5.23 11.807-11.68 11.807c-6.451 0-11.68-5.286-11.68-11.807 0-6.52 5.229-11.806 11.68-11.806z" transform="rotate(.086 -319716.963 671410.222)" style="display:block"/><path fill="#FFB100" d="M224.25-321.31c-7.653-3.724-12.875-.551-15.335 3.688-2.46 4.24-2.247 11.416 4.905 15.227 7.153 3.811 22.655 15.05 32.62 24.07 3.823 3.462 11.502 4.128 16.214-1.71 4.712-5.837 1.53-12.963-2.009-16.608-7.155-7.37-28.742-20.943-36.395-24.667z" transform="rotate(.086 -319717.22 671743.162)" style="display:block"/><path fill="#3D3D3D" d="M175.683-313.313c0 9.562-7.752 17.314-17.314 17.314-9.562 0-17.314-7.752-17.314-17.314 0-9.562 7.752-17.315 17.314-17.315 9.562 0 17.314 7.753 17.314 17.315zm-20.929-11.12c-13.51-11.936-14.787-32.568-2.85-46.079l22.652-26.694c11.937-13.512 32.567-14.788 46.08-2.85 14.325 12.657 14.76 34.86.938 48.067l-.997.597a94.763 94.763 0 0 0-10.584 11.98l-7.422 9.987c-11.403 15.344-33.49 17.65-47.817 4.993z" transform="rotate(.086 -392644.745 690000.326)" style="display:block"/><path fill="#E89665" d="M170.119-403.653c2.087.944 3.005 3.418 2.051 5.527-.954 2.109-6.986 5.386-6.986 5.386s-1.522-6.695-.568-8.804c.954-2.108 3.417-3.052 5.503-2.109z" transform="rotate(-1.495 23250.676 -39718.089)" style="display:block"/><path fill="#FFCBA3" d="M219.585-404.105c-21.544-12.439-49.093-5.057-61.532 16.488-12.439 21.545-5.057 49.093 16.487 61.532l29.192 16.854 45.045-78.02-29.192-16.854z" transform="rotate(.086 -392510.037 689380.595)" style="display:block"/><g style="display:block"><path fill="#FFB100" d="M1223.631 205.787c-20.182 27.435-21.056 91.205 47.863 114.256l35.293-57.443 33.688-61.875c-52.817-29.153-91.224-29.764-116.844 5.062z"/><path fill="#FFF" d="M1260.007 200.396c2.093 2.07 1.857 5.703-.528 8.112-2.385 2.41-6.013 2.683-8.106.612-2.093-2.071-1.856-5.703.528-8.112 2.385-2.41 6.013-2.683 8.106-.612zm-32.05-7.956c24.564 12.584 45.666-8.882 37.305-12.917-3.963.237-9.536 2.198-14.282 3.762-9.713-1.033-18.01 3.9-23.024 9.155zm-15.232 30.78c18.373 8.54 42.567-21.367 22.934-32.664-5.034 3.055-18.552 15.16-22.934 32.665z"/><path fill="#FF9500" d="M1290.38 251.9c-19.113 32.99-28.723 62.493-19.314 67.944 9.409 5.452 31.026-17.474 50.138-50.463 19.113-32.99 28.484-63.55 19.075-69.002-9.41-5.451-30.787 18.532-49.9 51.521zm-39.35-68.619c16.833.926 39.713 8.911 55.93 17.145a7.99 7.99 0 0 0 8.157-.565c2.877-1.98 6.201-5.164 10.63-6.799-30.54-14.526-55.045-17.87-74.717-9.78zm-34.804 36.505c-10.053 27.036-5.378 67.98 34.789 91.153-4.037-14.768 9.588-44.688 15.293-58.489 1.584-3.831-.007-8.238-3.683-10.155-9.982-5.206-31.182-16.705-46.399-22.51z"/></g><path fill="#FFCBA3" d="M208.585-408.855c-7.835-3.645-36.835-2.645-50.532 21.238-12.377 21.58-5.057 49.093 16.487 61.532 0 0 2.21 1.585 4.192 2.604C165-376.5 201.25-403.25 213.777-407.001c-1.277-.999-5.192-1.854-5.192-1.854z" transform="rotate(.086 -392644.468 689667.386)" style="display:block"/><g style="display:block"><path fill="#9F9F9F" d="M1189.7 210.849c-5.58 16.634-1.252 35.76 11.647 47.7 4.032-18.123 1.008-38.487-11.647-47.7z"/><path fill="#B23232" d="m1218.25 199.166 1.362 3.253c1.283 3.066-.22 6.55-3.357 7.783-3.136 1.233-6.719-.254-8.002-3.32l-1.361-3.253c-1.283-3.067.22-6.55 3.356-7.783 3.137-1.233 6.72.254 8.003 3.32z"/></g><g mask="url(#bG)" style="display:block"><path fill="#F14C4C" d="M1213.064 204.837a6.493 6.493 0 0 1 5.515 3.6 5.993 5.993 0 0 1-10.564-.814l-.215-.493a6.487 6.487 0 0 1 5.264-2.293z"/></g><g mask="url(#bH)" style="display:block"><path fill="#FFF" d="M1195.626 180.834c2.593-4.66 5.78-7.834 7.12-7.09l1.804 1.03c1.278.71.092 5.202-2.405 9.692-2.498 4.49-5.689 7.867-6.966 7.156l-1.821-.999c-1.34-.745-.324-5.128 2.268-9.789zm-11.732 21.228c2.593-4.66 5.78-7.835 7.12-7.09l1.805 1.03c1.277.71.091 5.201-2.407 9.692-2.497 4.49-5.688 7.866-6.965 7.155l-1.821-.999c-1.34-.745-.324-5.128 2.268-9.788z"/><path fill="#4B4B4B" d="M1185.658 200.048c1.242-2.233 2.769-3.753 3.41-3.396.024.013 1.245.616 1.269.63.612.34.043 2.492-1.153 4.643-1.196 2.15-2.725 3.768-3.337 3.427-.023-.013-1.252-.602-1.276-.615 1.972-2.453 2.58-5.042 1.087-4.69zm9.15-16.62c1.242-2.233 2.77-3.753 3.411-3.396.024.013 1.245.617 1.268.63.613.34.044 2.492-1.152 4.643-1.197 2.15-2.726 3.769-3.338 3.428-.023-.013-1.252-.602-1.276-.615 1.972-2.453 2.58-5.042 1.087-4.69z"/><path stroke-linecap="round" stroke-linejoin="round" stroke="#E89665" stroke-width="3" d="m-50.353 5.574 8.892 4.251-8.985 3.287m74.943-6.57L17.39 8.811l8.055 3.69" fill="none" transform="matrix(.42272 -.7599 .21847 .12153 1197.487 182.96)"/></g><path fill="#FFCBA3" d="M197.043-322.802c7.051 0 12.768 5.778 12.768 12.906 0 7.128-5.717 12.906-12.768 12.906-7.052 0-12.768-5.778-12.768-12.906 0-7.128 5.716-12.906 12.768-12.906z" transform="rotate(.086 -358980.226 639751.558)" style="display:block"/><path fill="#FFB100" d="M209.977-319.974c-9.302-.887-12.634 4.686-13.403 9.998-.77 5.312 1.13 12.294 9.95 13.462 8.82 1.168 31.864 6.129 44.498 9.894 4.994 1.457 12.373-.887 14.353-8.24 1.98-7.353-3.899-12.664-8.68-14.596-9.667-3.906-37.417-9.631-46.718-10.518z" transform="rotate(.086 -359313.639 640417.202)" style="display:block"/><path stroke-linecap="round" stroke-linejoin="round" stroke="#FF9500" stroke-width="12" d="M370.75-299.25s7.404 1.856 12 6.25" fill="none" transform="rotate(2.569 -11225.07 21410.234)" style="display:block"/><path stroke-linecap="round" stroke-linejoin="round" stroke="#FF9500" stroke-width="12" d="M349-258.75s5.994 6.234 8 12.25" fill="none" transform="rotate(-4.632 7509.96 -11881.399)" style="display:block"/><g style="display:block"><path stroke-linecap="round" stroke-linejoin="round" stroke="#00BDFF" stroke-width="7" d="m1167.763 161.847 6.512-3.354m-.528 13.527 5.642-3.199m-6.325 9.81c11.28 7.081 18.955-.47 20.964-.552" fill="none"/><path fill="#00BDFF" d="M1120.82 192.254c-2.079.513-3.85-1.57-3.013-3.54l2.324-5.469 6.459 7.588-5.77 1.42zm-4.555-8.814c-1.793-1.17-1.48-3.887.533-4.618l5.584-2.029-1.143 9.897-4.974-3.25zm24.921 13.517c-9.732 2.5-19.648-3.362-22.148-13.094-2.5-9.733 3.363-19.648 13.095-22.148 0 0 11.514-2.868 19.662-6.773 8.147-3.904 19.85-1.837 24.783 6.916s1.465 19.628-6.917 24.782c-8.38 5.155-28.475 10.317-28.475 10.317z"/><path fill="#FFF" d="M1140.166 188.812a6.173 6.173 0 0 1-7.873-3.77l-2.447-6.948a6.173 6.173 0 0 1 11.644-4.102l2.447 6.946a6.173 6.173 0 0 1-3.77 7.874z"/><path fill="#FFA3A3" d="M1134.55 179.25c.568.252.807.931.522 1.485l-.78 1.515c-.434.844-1.668.76-1.983-.136l-.778-2.206c-.315-.896.593-1.736 1.461-1.35l1.557.692z"/><path fill="#00729A" d="M1130.52 184.716a2.274 2.274 0 1 0-4.47-.838 2.274 2.274 0 0 0 4.47.838zm-1.279-3.766a2.273 2.273 0 1 0-4.47-.835 2.273 2.273 0 1 0 4.47.835z"/></g></g><g clip-path="url(#bK)" style="display:block" transform="matrix(-1 0 0 1 1916 -23.5)"><g style="display:block"><path fill="#4CC5FF" d="M1601.06 779.617c4.207-4.43 11.21-4.612 15.64-.403l16.786 15.944c4.43 4.208 4.611 11.21.403 15.64l-4.059 4.272c-8.396 8.589-14.894 4.128-25.78-3.683-10.11-8.284-16.026-17.33-8.393-25.925l5.403-5.845z"/><path fill="#1CB0F6" d="M1612.328 797.693c-7.462-6.733-8.853-14-5.167-18.136 5.768-6.474 19.65-20.565 28.964-27.556 6.203-4.656 27.381-13.337 49.617-18.243 9.823-2.165 19.541 4.04 21.71 13.864 2.167 9.823-4.04 19.542-13.863 21.71-12.064 2.664-32.072 10.269-35.965 12.122-3.027 2.772-16.19 14.32-23.342 22.372-4.615 5.195-15.216-.053-21.954-6.133z"/><path stroke-linecap="round" stroke="#FF4B4B" stroke-width="12.767" d="M1579.19 811.317c7.558 6.997 19.886 5.634 19.886 5.634" fill="none"/></g><g style="display:block"><path fill="#A46648" d="m1662.845 671.955 22.528 36.931c3.878 5.435 11.428 6.696 16.863 2.818 5.435-3.877 6.697-11.426 2.818-16.862l-29.46-29.844a7.262 7.262 0 1 0-12.75 6.957z"/><path stroke-linecap="round" stroke-linejoin="round" stroke="#A46648" stroke-width="6.586" d="m1655.8 664.2 7.994 2.69m-2.376-12.717 2.316 7.649m3.053-8.5.682 9.32m5.323-5.634-1.277 5.668" fill="none"/></g><g style="display:block"><path fill="#3D3D3D" d="m1722.357 645.238 25.397-19.328c9.276-7.048 22.509-5.243 29.557 4.033l6.837 8.997c7.048 9.276 5.243 22.509-4.033 29.558l-8.046 6.113c-9.276 7.05-22.51 5.244-29.558-4.032l-20.154-25.34zm9.389-5.684-13.838 45.404-27.36-8.966c-9.977-3.533-15.202-14.487-11.67-24.465l3.428-9.678c3.532-9.978 14.485-15.202 24.463-11.669l24.977 9.374zm25.666 19.665c1.35 10.5-50.38 17.147-51.73 6.649l-4.333-33.712c-1.349-10.498 6.068-20.104 16.567-21.453l13.71-1.762c10.499-1.35 20.103 6.067 21.453 16.566l4.333 33.712z"/><path fill="#A46648" d="m1736.986 713.819-37.315-11.79c-8.343-2.637-13.455-11.031-11.97-19.654l4.155-24.105a14.638 14.638 0 0 1 10.478-11.313l27.59-7.605a19.867 19.867 0 0 1 18.45 4.281l11.59 13.214a26.795 26.795 0 0 1 5.343 25.94l-6.366 19.613c-2.908 9.218-12.738 14.331-21.955 11.419z"/><path fill="#FDB02A" d="m1764.165 686.304 1.142-3.518a26.795 26.795 0 0 0-5.343-25.94l-11.59-13.213a19.867 19.867 0 0 0-18.45-4.28L1715.6 643.3c11.478 2.581 33.566 10.991 48.566 43.003zm-48.566-43.003-13.265 3.656a14.638 14.638 0 0 0-10.478 11.313l-1.43 8.3c8.008-11.955 25.173-23.269 25.173-23.269zm.69-1.448c.24.69-.236 1.369-.96 1.47-6.505.904-14.005-2.619-15.645-10.215-.154-.715.23-1.426.96-1.47 9.67-.577 13.831 5.038 15.644 10.215zm-.582 1.39c-.69.242-1.41-.23-1.468-.959-.336-4.18.13-12.246 10.214-15.645a1.106 1.106 0 0 1 1.47.96c.6 7.649-2.904 13.079-10.216 15.644z"/><path fill="#A46648" d="M1762.728 676.462a8.151 8.151 0 0 1-10.465 4.838 8.151 8.151 0 0 1-4.838-10.465 8.152 8.152 0 0 1 10.465-4.838 8.152 8.152 0 0 1 4.838 10.465z"/></g><g style="display:block"><path fill="#FFF" d="M1713.844 661.505c.202-3.947 3.629-7.382 7.519-7.538 3.891-.157 6.666 3.03 6.088 6.992l-1.127 7.726c-.512 3.501-3.616 6.36-7.054 6.498-3.438.137-6.449-1.285-6.27-4.771l.844-8.907z"/><path fill="#A46648" d="M1712.139 673.79c1.58-2.652 11.479-6.286 15.669-5.568l-3.892 9.494c-6.18 1.505-11.777-3.926-11.777-3.926z"/><path stroke-linecap="round" stroke="#86401F" stroke-width="4" d="M1697.604 668.76c4.193-3.325 8.6.36 8.6.36" fill="none"/><path fill="#86401F" d="M1710.536 669.492c.1.01 2.073 3.351 1.927 4.682a2.425 2.425 0 0 1-4.82-.526c.145-1.331 2.792-4.167 2.893-4.156zm-.335 7.132-2.093.192a2.497 2.497 0 0 1-.455-4.973l2.094-.192a2.498 2.498 0 0 1 .454 4.973z"/><path fill="#A41414" d="M1725.557 679.563c-1.361 5.982-11.26 10.683-18.607 6.706-2.17-1.175-1.466-4.187.832-5.087 3.149-1.234 5.897-3.164 8.41-5.728 2.512-2.565 5.786-3.351 7.91-.983 1.112 1.24 1.947 2.931 1.455 5.092z"/><path stroke-linecap="round" stroke="#3D3D3D" stroke-width="6.095" d="m1721.82 660.628-.254 4.969" fill="none"/><path fill="#E64340" d="M1715.198 684.18c-1.456-2.301-.01-5.828 3.228-7.875 2.124-1.344 4.49-1.718 6.278-1.167.796 1.15 1.26 2.603.903 4.392-.733 3.679-4.244 5.734-5.831 6.489-1.955.177-3.697-.447-4.578-1.84z"/><path fill="#E7E7E7" d="M1720.407 677.064a5.596 5.596 0 0 1-9.213 2.44c1.818-1.083 2.818-1.757 5.047-4.083 2.23-2.325 5.787-3.35 7.911-.982.294.328.565.687.796 1.078-.33.356-1.449 2.308-4.541 1.547z"/></g><path fill="#FDB02A" d="m749.545 173.4-6.236 3.947c-11.545 7.307-26.828 3.871-34.135-7.675l-3.946-6.236c-7.229-11.421-3.83-26.538 7.59-33.766 14.99-9.487 34.832-5.027 44.319 9.963 7.228 11.421 3.829 26.539-7.592 33.767zm-2.502-9.683-33.434-7.517 4.609-20.499c2.076-9.233 11.242-15.035 20.475-12.959 9.232 2.076 15.034 11.242 12.958 20.475l-4.608 20.5z" transform="rotate(4.696 -5733.565 12375.047)" style="display:block"/><path fill="#1CB0F6" d="M740.472 155.971c10.32 11.635 9.254 29.433-2.381 39.753s-29.433 9.254-39.753-2.381-9.254-29.433 2.381-39.753 29.433-9.254 39.753 2.381z" transform="rotate(4.696 -5739.662 12374.797)" style="display:block"/><g style="display:block"><path stroke-linecap="round" stroke-linejoin="round" stroke="#A46648" stroke-width="13" d="m1758.94 725.465 3.01-25.092m5.914 23.839 12.602-13.889" fill="none"/><path fill="#A46648" d="m1727.734 729.117 12.723 18.27 29.065-26.222s-27.75-4.135-30.832-4.483c-3.13-.37-6.627-1.074-9.23 1.057a8.586 8.586 0 0 0-1.726 11.378zm51.387 5.155-.067-.412c-.94-5.68-3.857-10.537-7.872-13.89-4.45-3.715-10.243-5.584-16.186-4.68-11.307 1.717-18.13 12.65-16.17 24.495l.066.408c1.96 11.845 12.032 20.595 23.34 18.875 11.307-1.72 18.868-12.821 16.89-24.796z"/><path stroke-linecap="round" stroke="#86401F" stroke-width="4" d="m1743.115 731.026 11.18-8.665c2.835-2.197 6.965-1.855 9.224.765 0 0 0 0 0 0 2.259 2.62 1.791 6.523-1.044 8.72l-11.18 8.664" fill="none"/></g><g style="display:block"><path fill="#1CB0F6" d="M1696.7 769.425c-8.882 1.086-17.7-3.936-21.058-12.666-1.255-3.262-2.862-7.184-4.883-11.171-5.888 5.065-7.718 11.345-12.479 17.745-6.583 8.85-19.095 10.689-27.945 4.105-8.85-6.583-10.689-19.096-4.106-27.945.28-.376 8.469-9.38 16.373-18.097 15.628-17.237 24.779-24.288 34.67-23.4a20.711 20.711 0 0 1 13.476 6.673c11.623 12.355 18.226 27.44 22.19 37.743 3.963 10.298-1.175 21.86-11.474 25.822a20.062 20.062 0 0 1-4.764 1.191z"/><path stroke-linecap="round" stroke-linejoin="round" stroke="#0395DB" stroke-width="4" d="m1658.959 759.706 11.159-15.742s7.027 21.43 14.944 23.36" fill="none"/><path fill="#5EC6FF" d="M1649.659 777.65c-2.873 3.848-13.038 1.117-22.706-6.099s-15.175-16.185-12.303-20.034c.74-.992 9.458-12.464 11.284-14.795 2.94-3.753 13.138-.742 22.407 6.018 9.268 6.76 15.06 15.829 12.263 20.022-2.797 4.193-10.559 14.37-10.945 14.888z"/><path stroke-linecap="round" stroke="#33B4F7" stroke-width="4.078" d="M1620.113 752.345c4.326.466 10.125 3.014 15.694 7.211 5.568 4.197 9.614 9.072 11.253 13.103" fill="none"/><path stroke-linecap="round" stroke="#FF4B4B" stroke-width="13.049" d="M1607.433 760.194c6.988 6.669 17.313 12.171 17.313 12.171" fill="none"/></g></g><g clip-path="url(#bP)" style="display:block" transform="matrix(-1 0 0 1 1916 -23.5)"><path fill="#FFB7E3" d="M467.017-248.933s-21.285-1.263-52.276-3.165c-15.682-.962-21.741 12.598-21.142 21.885.599 9.287 9.345 23.196 24.422 18.787 30.521-8.926 62.293-17.748 62.293-17.748l-13.297-19.759z" transform="rotate(10.823 -2046.76 5189.03)" style="display:block"/><g style="display:block"><path fill="#FFB7E3" d="M1392.684 306.91c-30.11-7.637-48.202-11.465-60.531-14.205-12.33-2.74-24.7 13.453-25.374 29.114-.68 15.772 10.308 28.915 23.174 28.607 12.963-.305 26.721-.007 58.315-2.951 15.57-1.451 19.698-10.304 20.894-17.714 1.195-7.409-1.207-18.977-16.478-22.85z"/><path fill="#FF9BDE" d="M1343.424 327.69c-3.94 12.27-14.356 19.535-23.262 16.225-8.905-3.31-12.93-15.942-8.989-28.213 3.941-12.271 14.356-19.536 23.262-16.226 8.906 3.31 12.93 15.942 8.99 28.214z"/></g><path stroke-linecap="round" stroke-linejoin="round" stroke="#FF7AD5" stroke-width="28.389" d="M332.633-229.747c4-8.5 9.297-19.653 14.823-28.535" fill="none" transform="rotate(-9.522 4082.056 -5812.643)" style="display:block"/><path stroke-linecap="round" stroke-linejoin="round" stroke="#FF86D0" stroke-width="15" d="M502.881-191.052c.376-4.651-.544-10.655-2.324-15.564" fill="none" transform="rotate(-27.007 2184.99 -1946.567)" style="display:block"/><path fill="#FFB7E3" d="M477.637-216.167c-7.613 5.833-.003.004-.006.006 0 0-18.631 14.661-50.031 23.985-8.308 2.467-15.805 6.766-15.948 15.431-.142 8.665 6.764 15.82 15.43 15.948 28.668.422 61.793-23.578 70.09-30.808 7.129-6.212 7.901-15.269 2.504-22.049-5.394-6.777-14.426-8.346-22.039-2.513z" transform="rotate(7.591 -3349.182 7420.616)" style="display:block"/><path fill="#FFB7E3" d="M457.463-227.353c-11.621 5.879-32.272 15.702-43.279 41.145-11.007 25.443 20.779 26.539 27.111 14.999 7.705-14.041 24.272-24.118 27.134-26.05 17.148-11.237 6.297-41.165-10.961-30.097" transform="rotate(4.999 -5562.911 11221.701)" style="display:block"/><path fill="#FFB3E6" d="M528.609-252.517c-1.324-2.088 4.65-9.711 4.65-9.711l14.956 10.268a12.758 12.758 0 0 0 7.223 2.241l22.195.002c4.776 0 7.827 5.094 5.572 9.305l-2.776 5.185a32.342 32.342 0 0 0-3.439 10.258c-.964 6.153-7.198 9.99-13.126 8.079l-5.291-1.706a42.078 42.078 0 0 1-26.151-24.402l-3.813-9.519z" transform="rotate(-5.713 6742.759 -9748.421)" style="display:block"/><g style="display:block"><path fill="#FFB7E3" d="M1469.684 302.482c17.51 14.344 20.076 40.166 5.733 57.676-6.947 8.48-20.03 14.914-33.062 11.713-13.965-3.43-22.853-15.87-28.7-25.971-3.493-6.03-5.796-11.37-6.917-18.107-1.12-6.737.651-14.295 5.27-19.577 14.902-17.039 40.166-20.078 57.676-5.734z"/><path fill="#FF86D0" d="M1484.256 340.19a41.1 41.1 0 0 0 .432-5.652l-6.604-15.771-18.528-22.38a40.495 40.495 0 0 0-3.81-1.38l-5.955-1.35c-.022-.004-.044-.009-.067-.012-8.27 7.236-9.968 20.909-3.007 31.508 8.189 12.472 21.423 19.517 37.539 15.037z"/><path fill="#FFB3E6" d="M1459.668 331.23a.666.666 0 0 1 .979-.007l2.68 2.864c.238.254.24.65.004.907l-4.48 4.866a.666.666 0 0 1-.942.038l-2.858-2.634a.667.667 0 0 1-.04-.94l4.657-5.095zm-12.467-23.156a.666.666 0 0 1 .886.416l1.188 3.737a.666.666 0 0 1-.387.82l-6.135 2.468a.666.666 0 0 1-.867-.37l-1.45-3.608a.667.667 0 0 1 .369-.866l6.396-2.597z"/><path fill="#1CB0F6" d="M1458.253 288.6c27.446-1.545 39.814 21.786 32.327 41.11l-.959 2.47c-3.33 8.596-23.143 11.725-35.562-6.46-14.55-19.437-6.132-36.103 4.194-37.12z"/></g><path stroke-linecap="round" stroke-linejoin="round" stroke="#1CB0F6" stroke-width="21" d="M495.345-355.137s-1.45 26.477-2.231 38.87c-.793 12.567-2.495 36.01-2.495 36.01" fill="none" transform="rotate(2.126 -14369.408 26301.406)" style="display:block"/><path stroke-linecap="round" stroke="#1CB0F6" stroke-width="21" d="M510.454-244.469s25.067 3.002 37.612 4.355c15 1.618 44.972 4.553 44.972 4.553" fill="none" transform="rotate(2.126 -14369.408 26301.406)" style="display:block"/><path fill="#E18E70" d="M495.071-354.738c-6.063 6.951-16.614 7.671-23.566 1.608-6.952-6.064-7.672-16.615-1.609-23.566 6.064-6.952 16.615-7.673 23.567-1.609 6.952 6.064 7.671 16.615 1.608 23.567z" transform="rotate(2.126 -14363.588 26755.636)" style="display:block"/><path fill="#E18E70" d="M592.492-232.902c-7.193-7.197-7.191-18.862.006-26.057 7.198-7.194 18.865-7.191 26.058.006 7.194 7.198 7.191 18.864-.007 26.058-7.198 7.194-18.862 7.19-26.057-.007z" transform="rotate(2.126 -14665.42 26122.225)" style="display:block"/><path fill="#FFB3E6" d="M606.933-297.91c-9.289 35.122-45.292 56.063-80.414 46.774-35.122-9.29-56.063-45.292-46.774-80.414 9.289-35.122 45.292-56.063 80.414-46.774 35.122 9.289 56.063 45.292 46.774 80.414z" transform="rotate(8.398 -2878.585 6617.687)" style="display:block"/><g style="display:block"><path fill="#E18E70" d="M1526.036 236.173c16.21 16.425 16.31 42.745.224 58.79-16.087 16.047-38.751 16.874-54.961.45-16.21-16.425-19.827-43.88-3.74-59.926 16.086-16.046 42.267-15.738 58.477.686z"/><path fill="#A70000" d="M1472.745 290.26c-1.497 3.457 1.1 10.863 14.743 15.264 13.643 4.402 17.6-4.502 18.474-6.518.873-2.018 3.35-10.851-3.38-13.022-5.274-1.702-12.854 2.639-19.403.526-6.548-2.112-8.937.292-10.434 3.75z"/><path fill="#FFF" d="M1502.583 285.985c-2.495-.806-5.506-.258-8.68.319-3.535.642-7.273 1.321-10.724.208-3.033-.979-5.174-.988-6.747-.373 1.454 2.095 4.431 4.392 9.007 6.178 8.294 3.185 16.185 1.796 20.948-.924.286-2.78-1.706-4.732-3.804-5.408z"/><path fill="#9E4D31" d="M1483.739 271.294c.096.133-1.12 5.974-2.68 7.779-1.538 1.782-5.077.903-6.351-.846-1.275-1.748-.646-3.303 1.195-4.46 1.465-1.252 7.74-2.605 7.836-2.473zm-11.507-18.743c-.747-.135-1.124-.888-.84-1.682.283-.794 1.121-1.328 1.869-1.193 5.359.968 8.102 4.206 9.3 7.84 1.178 3.574.867 7.516.214 10.097-.203.804-.996 1.415-1.77 1.365-.774-.05-1.236-.743-1.033-1.547.544-2.153.807-5.534-.183-8.54-.971-2.946-3.141-5.543-7.557-6.34zm35.866 28.227c.422.683 1.365.919 2.104.527.74-.392.997-1.263.574-1.946-3.218-5.197-7.873-7.48-12.367-8.17-4.426-.68-8.665.184-11.264 1.205-.785.308-1.15 1.146-.819 1.87.332.725 1.236 1.063 2.021.755 2.16-.849 5.804-1.592 9.551-1.017 3.68.564 7.488 2.396 10.2 6.776z"/><path fill="#3B3B3B" d="M1549.36 266.197c.199-2.135-1.796-3.999-3.686-4.09-1.562.194-3.477-.34-5.722-1.737-3.738-2.212-5.145-26.715-30.61-36.358-9.455-3.968-24.882-3.367-27.218 2.612-5.108 13.259-.754 37.659 27.978 48.211 26.521 10.081 36.387-1 39.258-8.638z"/></g></g><g clip-path="url(#cg)" style="display:block" transform="matrix(-1 0 0 1 1916 -23.5)"><g mask="url(#ch)" style="display:block"><g clip-path="url(#ci)"><path stroke-linecap="round" stroke-linejoin="round" stroke="#3D3D3D" stroke-width="24" d="M541.75 368c5.75 8.75 22.071 22.16 22.071 22.16s10.171 1.204 17.266-5.709" fill="none" transform="rotate(-6.001 6125.918 -8633.348)" style="display:block"/><path fill="#3D3D3D" d="M515.631 280.06c17.811 0 32.25 14.439 32.25 32.25s-14.014 31.792-31.825 31.792-33.434-13.935-33.434-31.746 15.198-32.296 33.009-32.296zm37.063 10.191c26.438-4.35 49.58 5.502 52.209 28.34 2.629 22.838-19.849 32.746-42.826 33.493-51.772 1.682-70.509-51.776-9.383-61.833z" transform="rotate(-6 6146.779 -8594.894)" style="display:block"/><path fill="#DB8D74" d="M521.5 303c-16.5 11-42 12.5-66 13.5s-53.834 22.53-51 52c2.5 26 27.5 43 54.5 43.5 30.012.556 61-2.5 100.5-24s36.5-55.5 23.5-77-45-19-61.5-8z" transform="rotate(-6 6207.043 -8631.536)" style="display:block"/><g mask="url(#cj)" style="display:block"><path fill="#FFAADE" d="M1468.486 843.802c12.187-5.889-141.545-21.056-120.62 86.501 24.057 123.663 217.48 8.157 183.98 18.872-18.24 5.835-37.063 6.126-52.224.37a52.71 52.71 0 0 1-8.738-4.253 46.815 46.815 0 0 1-7.354-5.522c-7.586-6.98-14.101-17.327-17.956-29.34-7.886-24.578 5.074-58.008 22.912-66.628zm-24.563 10.378s-110.177-10.375-96.712 74.684c13.465 85.058 144.2 37.92 144.2 37.92s-66.13-4.529-75.99-46.788c-9.684-41.504 28.502-65.816 28.502-65.816zm-33.247 26.333-3.358 6.092 11.053-1.402 2.991-6.249-10.686 1.56zm17.723-22.547s-93.112 5.285-78.152 71.081c14.96 65.797 119.856 41.101 119.856 41.101s-52.298-6.784-63.227-48.902c-9.475-36.513 21.523-63.28 21.523-63.28zm-13.6 59.343-10.334 3.153 2.727 8.444 9.888-3.846-2.282-7.751z"/><path fill="#A56641" d="M1443.923 854.18s-110.177-10.375-96.712 74.684c13.465 85.058 144.2 37.92 144.2 37.92s-66.13-4.529-75.99-46.788c-9.684-41.504 28.502-65.816 28.502-65.816z"/><path fill="#2CE69B" d="m1410.676 880.513-3.358 6.092 11.053-1.402 2.991-6.249-10.686 1.56zm17.723-22.547s-93.112 5.285-78.152 71.081c14.96 65.797 119.856 41.101 119.856 41.101s-52.298-6.784-63.227-48.902c-9.475-36.513 21.523-63.28 21.523-63.28zm-13.6 59.343-10.334 3.153 2.727 8.444 9.888-3.846-2.282-7.751z"/></g><g mask="url(#ck)" style="display:block"><path fill="#3D3D3D" d="M1472.102 805.774c-23.24 3.7-30.022 25.288-29.279 39.527.744 14.25 4.38 29.705 23.967 36.696 20.559 7.337 44.65-5.699 45.989-36.005.966-21.868-17.437-43.918-40.677-40.218z"/></g><path fill="#3D3D3D" d="M557.75 265.5c16.983 0 30.75 13.711 30.75 30.625s-13.767 30.625-30.75 30.625S527 313.039 527 296.125s13.767-30.625 30.75-30.625z" transform="rotate(-6 6133.493 -8523.843)" style="display:block"/><path fill="#DB8D74" d="M512.021 320.5c6.639 0 12.02 5.382 12.02 12.021 0 6.639-5.381 12.02-12.02 12.02-6.639 0-12.021-5.381-12.021-12.02 0-6.639 5.382-12.021 12.021-12.021z" transform="rotate(-6 6925.219 -9840.017) scale(.75)" style="display:block"/><g style="display:block"><path fill="#B82C2C" d="M1498.31 902.702a2.511 2.511 0 0 1 3.552.032l21.38 21.771c.972.99.959 2.58-.031 3.553l-.21.205c-7.002 6.877-18.253 6.774-25.129-.227-6.876-7.003-6.774-18.253.228-25.13l.21-.204z"/><path fill="#FD5050" d="M1507.829 933.145a17.69 17.69 0 0 1-9.957-5.11 17.713 17.713 0 0 1-5.091-12.376 17.65 17.65 0 0 1 9.97 5.103 17.668 17.668 0 0 1 5.078 12.383z" opacity=".8"/></g><path stroke-linecap="round" stroke-linejoin="round" stroke="#3D3D3D" stroke-width="24" d="M536.818 374.269c8.057 4.734 26.951 16.388 26.951 16.388l12.016-2.71" fill="none" transform="rotate(-6.001 6125.918 -8633.348)" style="display:block"/><g style="display:block"><path fill="#FFF" d="M1546.976 907.605s4.684-5.066 8.91-9.991c2.41-7.974 3.334-14.691 2.907-22.24-3.543 1.251-5.795 8.749-6.798 12.664l-5.019 19.567zm-3.204-29.589c-4.976-2.309-11.18.157-12.975 5.613l-4.452 13.391c10.947 2.443 16.06 9.047 16.06 9.047l4.86-16.1c1.235-3.751.401-10.267-3.493-11.95z"/><path fill="#3D3D3D" d="M1553.674 882.871c.737-2.761 2.425-4.811 3.772-4.58 1.348.232 1.844 2.658 1.107 5.42l-.464 1.739c-.736 2.761-2.425 4.811-3.773 4.58-1.347-.232-1.844-2.659-1.107-5.42l.465-1.739zm-14.279 2.216c.61-2.758 2.677-4.685 4.618-4.304 1.941.38 3.02 2.925 2.41 5.683l-.385 1.736c-.61 2.758-2.677 4.686-4.618 4.306-1.941-.381-3.02-2.926-2.41-5.683l.385-1.738z"/></g><path stroke-linecap="round" stroke-linejoin="round" stroke="#3D3D3D" stroke-width="12" d="M568.75 333.5s7.5-2 11.5 1m17.608 3.473s7.344 2.513 8.997 7.232" fill="none" transform="rotate(-13 3371.808 -3626.748)" style="display:block"/><path fill="#DB8D74" d="M571.295 372.25c4.029 0 7.295 3.217 7.295 7.186s-3.266 7.186-7.295 7.186-7.295-3.217-7.295-7.186 3.266-7.186 7.295-7.186z" transform="rotate(-6 5787.619 -8069.133) scale(1.1)" style="display:block"/></g></g><g style="display:block"><path fill="#DB8D74" d="M1426.482 950.142c-7.733 3.358-18.58 7.433-15.632 17.87 2.647 9.368 14.428 8.414 22.007 4.922 3.967 4.669 9.756 1.055 7.452-3.811-3.858-8.147-7.33-21.802-13.827-18.98z"/><path stroke-linecap="round" stroke-linejoin="round" stroke="#FFAADE" stroke-width="25" d="m1433.348 928.641-1.712 27.719" fill="none"/></g></g></g></svg>